<?xml version="1.0" encoding="UTF-8" standalone="no"?>
<!-- Created with Inkscape (http://www.inkscape.org/) -->

<svg
   xmlns:dc="http://purl.org/dc/elements/1.1/"
   xmlns:cc="http://creativecommons.org/ns#"
   xmlns:rdf="http://www.w3.org/1999/02/22-rdf-syntax-ns#"
   xmlns:svg="http://www.w3.org/2000/svg"
   xmlns="http://www.w3.org/2000/svg"
   xmlns:sodipodi="http://sodipodi.sourceforge.net/DTD/sodipodi-0.dtd"
   xmlns:inkscape="http://www.inkscape.org/namespaces/inkscape"
   width="210mm"
   height="297mm"
   viewBox="0 0 210 297"
   version="1.1"
   id="svg4231"
   inkscape:version="0.92.1 r15371"
   sodipodi:docname="planchette.svg">
  <defs
     id="defs4225" />
  <sodipodi:namedview
     id="base"
     pagecolor="#ffffff"
     bordercolor="#666666"
     borderopacity="1.0"
     inkscape:pageopacity="0.0"
     inkscape:pageshadow="2"
     inkscape:zoom="2.8"
     inkscape:cx="346.12012"
     inkscape:cy="732.91317"
     inkscape:document-units="mm"
     inkscape:current-layer="layer1"
     showgrid="false"
     inkscape:window-width="1680"
     inkscape:window-height="991"
     inkscape:window-x="1280"
     inkscape:window-y="0"
     inkscape:window-maximized="1" />
  <metadata
     id="metadata4228">
    <rdf:RDF>
      <cc:Work
         rdf:about="">
        <dc:format>image/svg+xml</dc:format>
        <dc:type
           rdf:resource="http://purl.org/dc/dcmitype/StillImage" />
        <dc:title></dc:title>
      </cc:Work>
    </rdf:RDF>
  </metadata>
  <g
     inkscape:label="Layer 1"
     inkscape:groupmode="layer"
     id="layer1">
    <path
       style="fill:#00ff00;fill-opacity:0;stroke:#00ff00;stroke-width:0.26726952;stroke-miterlimit:4;stroke-dasharray:none;stroke-opacity:1"
       d="m 84.929367,133.14963 c -0.36091,-0.56962 -0.719661,-1.1083 -0.797231,-1.19707 -0.0776,-0.0888 -0.14102,-0.25415 -0.14102,-0.3675 0,-0.11335 -0.0451,-0.20656 -0.10023,-0.20714 -0.0551,-5.3e-4 -0.163229,-0.13587 -0.24024,-0.30068 -0.245129,-0.52456 -1.053619,-2.03431 -1.12657,-2.1037 -0.0622,-0.0592 -0.380689,-0.65693 -1.49519,-2.80633 -0.1715,-0.33075 -0.341999,-0.63142 -0.378879,-0.66817 -0.0683,-0.068 -1.139321,-2.09253 -1.395761,-2.63825 -0.0774,-0.1648 -0.1859,-0.3001 -0.241019,-0.30068 -0.0551,-5.3e-4 -0.10023,-0.1163 -0.10023,-0.25717 0,-0.14088 -0.0451,-0.27618 -0.100221,-0.30068 -0.0551,-0.0245 -0.40091,-0.63719 -0.7684,-1.36153 -0.3675,-0.72434 -0.74335,-1.34717 -0.83522,-1.38406 -0.0919,-0.0369 -0.16704,-0.1809 -0.16704,-0.32004 0,-0.13913 -0.0601,-0.25297 -0.13364,-0.25297 -0.0735,0 -0.13364,-0.12027 -0.13364,-0.26727 0,-0.14699 -0.0601,-0.26727 -0.133629,-0.26727 -0.0735,0 -0.133641,-0.12027 -0.133641,-0.26727 0,-0.14699 -0.0601,-0.26726 -0.13363,-0.26726 -0.0735,0 -0.13363,-0.12028 -0.13363,-0.26728 0,-0.14699 -0.0601,-0.26726 -0.13364,-0.26726 -0.0735,0 -0.13364,-0.12028 -0.13364,-0.26727 0,-0.147 -0.0601,-0.26727 -0.133629,-0.26727 -0.0735,0 -0.133631,-0.12027 -0.133631,-0.26727 0,-0.147 -0.0451,-0.26821 -0.10023,-0.26935 -0.0551,-0.001 -0.24737,-0.30182 -0.4272,-0.66817 -0.17984,-0.36636 -0.37528,-0.6661 -0.43431,-0.6661 -0.059,0 -0.10734,-0.12027 -0.10734,-0.26727 0,-0.147 -0.0601,-0.26727 -0.13364,-0.26727 -0.0735,0 -0.13363,-0.12027 -0.13363,-0.26727 0,-0.147 -0.0526,-0.26727 -0.11693,-0.26727 -0.0643,0 -0.15157,-0.17316 -0.19389,-0.38479 -0.0423,-0.21164 -0.17012,-0.47796 -0.28398,-0.59182 -0.11385,-0.11385 -0.20701,-0.32803 -0.20701,-0.47594 0,-0.14791 -0.0601,-0.30609 -0.13363,-0.35152 -0.0735,-0.0454 -0.13364,-0.19931 -0.13364,-0.34197 0,-0.14266 -0.0601,-0.25938 -0.13364,-0.25938 -0.0735,0 -0.13363,-0.091 -0.13363,-0.20227 0,-0.11124 -0.0601,-0.32172 -0.13363,-0.46772 -0.0735,-0.146 -0.19378,-0.38491 -0.26728,-0.53091 -0.0735,-0.146 -0.13363,-0.33236 -0.13363,-0.41412 0,-0.0818 -0.084,-0.33815 -0.18676,-0.56976 -0.36768,-0.82906 -1.13678,-2.70943 -1.48405,-3.62834 -0.19443,-0.51449 -0.4092,-1.03986 -0.47725,-1.16749 -0.068,-0.12762 -0.12373,-0.2959 -0.12373,-0.37395 0,-0.078 -0.12027,-0.39083 -0.26727,-0.69509 -0.147,-0.30425 -0.26727,-0.6329 -0.26727,-0.73034 0,-0.0974 -0.058,-0.28159 -0.12897,-0.40922 -0.0709,-0.12762 -0.31358,-0.80333 -0.53921,-1.50158 -0.22563,-0.69824 -0.46827,-1.373949 -0.5392,-1.50157 -0.0709,-0.12763 -0.12897,-0.34959 -0.12897,-0.49325 0,-0.14365 -0.0601,-0.29836 -0.13364,-0.34378 -0.0735,-0.0454 -0.13363,-0.20013 -0.13363,-0.343789 0,-0.14366 -0.0532,-0.36562 -0.11824,-0.493241 -0.18686,-0.36674 -0.68357,-1.9817 -0.68357,-2.222519 0,-0.11997 -0.0543,-0.322551 -0.12061,-0.450181 -0.10964,-0.210949 -0.23192,-0.615009 -0.56563,-1.86907 -0.0636,-0.238879 -0.1757,-0.63403 -0.2492,-0.87812 -0.0735,-0.244089 -0.13364,-0.59287 -0.13364,-0.77508 0,-0.1822 -0.054,-0.38841 -0.11994,-0.45823 -0.12356,-0.13077 -0.23893,-0.78244 -0.36554,-2.06466 -0.0399,-0.40424 -0.12742,-0.79212 -0.19445,-0.86194 -0.16774,-0.17473 -0.15688,-3.510599 0.0117,-3.614819 0.0735,-0.0454 0.13364,-0.28597 0.13364,-0.53454 0,-0.24857 0.0601,-0.48912 0.13363,-0.53454 0.0735,-0.0454 0.13363,-0.28952 0.13363,-0.54243 0,-0.25291 0.0601,-0.45983 0.13364,-0.45983 0.0735,0 0.13364,-0.12027 0.13364,-0.26727 0,-0.147 0.0601,-0.26727 0.13363,-0.26727 0.0735,0 0.13364,-0.12027 0.13364,-0.26727 0,-0.147 0.0601,-0.26727 0.13363,-0.26727 0.0735,0 0.13363,-0.12027 0.13363,-0.26727 0,-0.147 0.0601,-0.26727 0.13364,-0.26727 0.0735,0 0.13363,-0.0819 0.13363,-0.18202 0,-0.17366 0.72342,-1.03523 1.7423,-2.07502 0.43423,-0.44314 0.63329,-0.58615 1.39812,-1.00447 0.147,-0.0804 0.29734,-0.17624 0.33409,-0.21299 0.15961,-0.15962 0.68131,-0.40091 0.86681,-0.40091 0.11125,0 0.20227,-0.047 0.20227,-0.10446 0,-0.0575 0.28564,-0.18222 0.63476,-0.27727 0.34912,-0.0951 0.7729,-0.22845 0.94173,-0.29644 0.39741,-0.16006 1.96145,-0.15947 2.48988,0.001 0.225721,0.0685 0.681,0.19564 1.01175,0.2825 0.330751,0.0869 0.72163,0.20911 0.86862,0.27168 0.865771,0.36851 4.965081,1.64633 5.791461,1.8053 1.27602,0.24546 4.513769,0.245439 5.78961,-4e-5 1.0518,-0.20238 4.639099,-1.35591 4.849329,-1.55936 0.0698,-0.0676 0.261721,-0.12285 0.426432,-0.12285 0.164708,0 0.33664,-0.0601 0.382058,-0.13364 0.0454,-0.0735 0.259451,-0.13363 0.47561,-0.13363 0.216162,0 0.39302,-0.0601 0.39302,-0.13364 0,-0.0735 0.20692,-0.13363 0.45983,-0.13363 0.25291,0 0.49158,-0.0514 0.530381,-0.11414 0.185708,-0.30049 2.734008,-0.10703 3.451333,0.26202 0.12763,0.0657 0.35313,0.11939 0.50113,0.11939 0.148,0 0.26908,0.0601 0.26908,0.13363 0,0.0735 0.11526,0.13364 0.25614,0.13364 0.14087,0 0.27617,0.0451 0.30068,0.10022 0.0245,0.0551 0.31515,0.24757 0.6459,0.42765 0.33074,0.18008 0.71793,0.43566 0.86041,0.56795 0.14248,0.13229 0.30986,0.24052 0.37195,0.24052 0.15009,0 1.03943,0.89393 1.03943,1.04481 0,0.065 0.1804,0.30704 0.40089,0.53777 0.22051,0.23073 0.40091,0.46692 0.40091,0.524859 0,0.0579 0.12028,0.192041 0.26727,0.297991 0.147,0.10595 0.26727,0.29963 0.26727,0.430409 0,0.130771 0.0493,0.237761 0.10948,0.237761 0.0602,0 0.19136,0.30068 0.29143,0.66818 0.10007,0.36749 0.22463,0.668169 0.2768,0.668169 0.0522,0 0.12571,0.19544 0.16341,0.434311 0.0377,0.23888 0.17068,0.88533 0.29551,1.43658 0.29392,1.29788 0.19509,2.951039 -0.33551,5.612659 -0.0806,0.40424 -0.1797,0.97553 -0.22024,1.26953 -0.0405,0.29399 -0.12769,0.59167 -0.19366,0.661491 -0.066,0.0698 -0.11995,0.325399 -0.11995,0.567949 0,0.24254 -0.0533,0.44099 -0.11846,0.44099 -0.0652,0 -0.15172,0.165371 -0.19236,0.367501 -0.18208,0.90565 -0.25082,1.186609 -0.35143,1.43657 -0.0592,0.146999 -0.30139,0.898699 -0.53827,1.67044 -0.23689,0.771739 -0.48463,1.50758 -0.55053,1.63521 -0.0659,0.127619 -0.11983,0.349579 -0.11983,0.493239 0,0.14366 -0.0601,0.29836 -0.13364,0.343791 -0.0735,0.0454 -0.13363,0.22583 -0.13363,0.4009 0,0.175079 -0.0601,0.35548 -0.13364,0.40091 -0.0735,0.0454 -0.13363,0.217349 -0.13363,0.382059 0,0.16471 -0.0493,0.3566 -0.10957,0.42643 -0.0603,0.0698 -0.25151,0.57797 -0.42497,1.12921 -0.17347,0.55125 -0.36471,1.05939 -0.42497,1.12922 -0.0603,0.0698 -0.10957,0.26526 -0.10957,0.43431 0,0.16905 -0.047,0.30736 -0.10446,0.30736 -0.0574,0 -0.18622,0.27689 -0.28614,0.61532 -0.0999,0.33842 -0.29346,0.84667 -0.43008,1.12944 -0.13662,0.28276 -0.2484,0.57798 -0.2484,0.65602 0,0.078 -0.0552,0.24633 -0.12271,0.37395 -0.23485,0.44409 -0.6791,1.49942 -0.6791,1.61323 0,0.063 -0.0836,0.28917 -0.18587,0.50259 -0.10224,0.21341 -0.27565,0.5985 -0.385364,0.85574 -0.109709,0.25725 -0.326739,0.75272 -0.482298,1.10103 -0.155551,0.34833 -0.282811,0.72417 -0.282811,0.83522 0,0.11105 -0.0549,0.20191 -0.121891,0.20191 -0.067,0 -0.16253,0.24054 -0.212201,0.53454 -0.0497,0.294 -0.145158,0.53454 -0.212198,0.53454 -0.067,0 -0.121891,0.12027 -0.121891,0.26727 0,0.147 -0.0601,0.26727 -0.13363,0.26727 -0.0735,0 -0.133639,0.12027 -0.133639,0.26727 0,0.147 -0.0601,0.26727 -0.13363,0.26727 -0.0735,0 -0.133641,0.12027 -0.133641,0.26727 0,0.14699 -0.0601,0.26727 -0.133628,0.26727 -0.0735,0 -0.133641,0.16713 -0.133641,0.3714 0,0.2181 -0.110321,0.45092 -0.267269,0.56404 -0.147003,0.10595 -0.267272,0.29963 -0.267272,0.4304 0,0.13078 -0.0601,0.23777 -0.13363,0.23777 -0.0735,0 -0.133638,0.12027 -0.133638,0.26727 0,0.147 -0.0601,0.26727 -0.133631,0.26727 -0.0735,0 -0.13363,0.12027 -0.13363,0.26727 0,0.147 -0.0601,0.26727 -0.133641,0.26727 -0.0735,0 -0.133639,0.12027 -0.133639,0.26727 0,0.147 -0.0507,0.26727 -0.11262,0.26727 -0.0619,0 -0.257392,0.28564 -0.434311,0.63476 -0.176929,0.34913 -0.366789,0.65482 -0.42192,0.67931 -0.0551,0.0245 -0.100219,0.15981 -0.100219,0.30068 0,0.14088 -0.0489,0.25614 -0.108691,0.25614 -0.0598,0 -0.19128,0.21047 -0.292219,0.46772 -0.10093,0.25725 -0.232431,0.46772 -0.292211,0.46772 -0.0598,0 -0.108688,0.12027 -0.108688,0.26727 0,0.147 -0.0601,0.26727 -0.133641,0.26727 -0.0735,0 -0.133631,0.12027 -0.133631,0.26727 0,0.147 -0.0451,0.26738 -0.100229,0.26752 -0.0551,1.3e-4 -0.430969,0.6466 -0.83521,1.43657 -0.404249,0.78998 -0.7801,1.45637 -0.835221,1.48087 -0.0551,0.0245 -0.10023,0.15981 -0.10023,0.30068 0,0.14087 -0.0601,0.25613 -0.13363,0.25613 -0.0735,0 -0.133638,0.11526 -0.133638,0.25614 0,0.14087 -0.0505,0.27617 -0.112311,0.30067 -0.0618,0.0245 -0.37737,0.5557 -0.70134,1.18044 -0.32397,0.62475 -0.61921,1.16597 -0.65609,1.20272 -0.0724,0.0722 -0.461261,0.77698 -0.95843,1.73725 -0.171241,0.33074 -0.35644,0.6214 -0.411571,0.6459 -0.0551,0.0245 -0.100219,0.15981 -0.100219,0.30068 0,0.14087 -0.0451,0.2566 -0.10023,0.25717 -0.0551,5.3e-4 -0.166431,0.13588 -0.24734,0.30068 -0.39488,0.80429 -0.79844,1.50685 -0.88855,1.5469 -0.0551,0.0245 -0.10023,0.12973 -0.10023,0.23386 0,0.10412 -0.0505,0.18931 -0.11218,0.18931 -0.0617,0 -0.181721,0.1526 -0.2667,0.33911 -0.36344,0.79768 -0.89129,1.26451 -1.42977,1.26451 -0.44358,0 -0.512221,-0.063 -1.128511,-1.03567 z m 1.62029,-1.00226 c 0.16773,-0.23888 0.35223,-0.45436 0.41001,-0.47886 0.0578,-0.0245 0.105049,-0.13404 0.105049,-0.24341 0,-0.10937 0.0901,-0.28897 0.200251,-0.39911 0.30152,-0.30152 0.404849,-0.85665 0.185339,-0.99567 -0.284499,-0.18017 -0.34198,-0.15604 -0.858509,0.3605 l -0.481831,0.48182 -0.343809,-0.41501 c -0.2597,-0.31347 -0.453511,-0.41501 -0.792161,-0.41501 -0.359249,0 -0.448339,0.0531 -0.448339,0.26727 0,0.147 0.0601,0.26727 0.133629,0.26727 0.0735,0 0.133711,0.0752 0.133801,0.16704 8.9e-5,0.0919 0.150429,0.34177 0.334089,0.55532 0.18366,0.21356 0.33392,0.43096 0.33392,0.48311 0,0.15114 0.54228,0.79905 0.668781,0.79905 0.0632,0 0.252059,-0.19544 0.41978,-0.43431 z m 0.476569,-2.87315 c 0.0902,-0.24304 0.548701,-0.70158 0.70157,-0.70158 0.0482,0 0.20438,0.0883 0.34705,0.1962 0.379091,0.28673 0.437091,0.25909 0.692231,-0.32984 0.127369,-0.29399 0.27753,-0.53454 0.333689,-0.53454 0.0562,0 0.102111,-0.12027 0.102111,-0.26727 0,-0.147 0.0601,-0.26727 0.133629,-0.26727 0.0735,0 0.13364,-0.0601 0.13364,-0.13363 0,-0.19514 -2.047569,-0.17077 -2.24507,0.0267 -0.0882,0.0882 -0.161269,0.28364 -0.16237,0.43431 -0.001,0.15067 -0.0887,0.51449 -0.194589,0.80849 -0.23038,0.63948 -0.254441,1.00226 -0.0665,1.00226 0.0758,0 0.17687,-0.10523 0.22459,-0.23386 z m -1.638559,-0.40091 c -0.107451,-0.62938 -0.3456,-1.38511 -0.50534,-1.60361 -0.0772,-0.10561 -0.46017,-0.16705 -1.041211,-0.16705 -0.73905,0 -0.919079,0.0404 -0.919079,0.2061 0,0.11335 0.0608,0.27872 0.135089,0.36749 0.0743,0.0888 0.25907,0.32678 0.41061,0.5289 0.186661,0.24898 0.39711,0.3675 0.65258,0.3675 0.23451,0 0.539341,0.15157 0.80625,0.4009 0.236041,0.2205 0.4556,0.4009 0.487901,0.4009 0.0323,0 0.0202,-0.2255 -0.0268,-0.50113 z m -0.52516,-2.85506 c 0.39745,-0.18683 0.628529,-0.39151 0.68185,-0.60395 0.177039,-0.70539 -0.547541,-1.65425 -1.87984,-2.46171 -0.40836,-0.24749 -0.742401,-0.51245 -0.742311,-0.5888 2.6e-4,-0.27455 0.63853,-0.8738 0.93062,-0.8738 0.16408,0 0.466861,0.18041 0.672831,0.40091 0.36297,0.38855 0.66818,0.51979 0.66818,0.28732 0,-0.25895 -0.83801,-1.24293 -1.34337,-1.57736 -0.624041,-0.41297 -1.77619,-0.57205 -2.364331,-0.32645 -0.57219,0.23895 -1.273389,1.48285 -0.835889,1.48285 0.0735,0 0.133639,-0.0601 0.133639,-0.13363 0,-0.0735 0.180401,-0.13364 0.400901,-0.13364 0.341509,0 0.400909,0.0509 0.400909,0.34364 0,0.43838 -0.28707,0.72544 -0.725449,0.72544 -0.4195,0 -0.42258,0.0528 -0.0446,0.76644 0.360369,0.68038 0.533079,0.76384 1.039139,0.50215 0.48577,-0.25121 0.897911,-0.25431 1.14362,-0.009 0.271621,0.27162 0.24448,0.52858 -0.043,0.40668 -0.528001,-0.22392 -0.76675,-0.14443 -0.814041,0.27104 -0.0461,0.40489 0.321671,1.26953 0.53999,1.26953 0.065,0 0.247271,0.12027 0.405061,0.26727 0.37304,0.34754 1.01586,0.34199 1.77604,-0.0153 z m 4.3231,-0.007 c 0.67732,-0.36153 1.0343,-1.03074 0.8649,-1.6214 -0.14708,-0.51281 -0.315711,-0.56956 -0.68105,-0.22919 -0.3583,0.33381 -0.43385,0.33699 -0.43385,0.0182 0,-0.38636 0.69502,-0.6274 1.202709,-0.41711 0.220501,0.0913 0.400911,0.2189 0.400911,0.28348 0,0.18512 0.400459,0.13695 0.6109,-0.0735 0.10499,-0.105 0.1909,-0.2804 0.1909,-0.38977 0,-0.10938 0.0508,-0.21891 0.112959,-0.24341 0.0621,-0.0245 0.153481,-0.20992 0.203,-0.41203 0.0836,-0.34105 0.0603,-0.3675 -0.322959,-0.3675 -0.49798,0 -0.7948,-0.26559 -0.7948,-0.71115 0,-0.4214 0.34915,-0.55621 0.753809,-0.29106 0.300751,0.19705 0.315261,0.19195 0.315261,-0.11079 0,-0.44842 -0.69625,-1.12689 -1.266151,-1.2338 -0.590249,-0.11072 -1.535349,0.11788 -2.186389,0.52886 -0.64231,0.40548 -0.803241,0.61078 -0.91126,1.1625 l -0.0891,0.45498 0.40917,-0.4343 c 0.22504,-0.23889 0.53811,-0.43433 0.695709,-0.43433 0.300321,0 0.942571,0.54872 0.942571,0.80529 0,0.19038 -0.33735,0.53106 -0.525871,0.53106 -0.260749,0 -1.992849,1.81014 -2.085559,2.17953 -0.121991,0.48606 0.23472,1.02771 0.67681,1.02771 0.18205,0 0.331009,0.0601 0.331009,0.13363 0,0.24124 1.032381,0.13975 1.586351,-0.15594 z m -3.590871,-5.54019 c 0,-0.7734 -0.18805,-1.11922 -0.608609,-1.11922 -0.29501,0 -0.32183,0.0409 -0.24119,0.36749 0.0499,0.20213 0.20138,0.46475 0.336629,0.58363 0.13524,0.11887 0.245901,0.37799 0.245901,0.57583 0,0.20578 0.0572,0.32436 0.133629,0.27712 0.0735,-0.0454 0.13364,-0.35361 0.13364,-0.68485 z m 1.345641,0.21712 c 0.0684,0 0.126249,-0.10523 0.128589,-0.23386 0.002,-0.12862 0.0925,-0.35059 0.200451,-0.49326 0.289369,-0.38258 0.23983,-0.60922 -0.13318,-0.60922 -0.415651,0 -0.60606,0.34712 -0.60606,1.10483 0,0.62332 0.171169,0.98338 0.24316,0.51147 0.0235,-0.15397 0.0987,-0.27996 0.16704,-0.27996 z m 6.039108,-0.23386 c 0.754211,-1.29203 0.759452,-1.26202 -0.203599,-1.16526 -1.179569,0.11851 -1.256159,0.15363 -0.943891,0.43281 0.410552,0.36703 0.646362,1.05715 0.444381,1.30052 -0.135771,0.1636 -0.127669,0.20034 0.0442,0.20034 0.115718,0 0.412257,-0.34579 0.658958,-0.76841 z m -12.997409,0.0214 c 0,-0.33569 0.0903,-0.55337 0.30068,-0.72506 0.3554,-0.29001 0.26796,-0.33852 -0.80909,-0.44894 -0.68344,-0.0701 -0.70557,-0.0621 -0.617099,0.22257 0.0505,0.16239 0.14395,0.31529 0.207729,0.33979 0.0638,0.0245 0.11597,0.15981 0.11597,0.30068 0,0.14087 0.0531,0.25613 0.11805,0.25613 0.0649,0 0.1495,0.12028 0.187941,0.26727 0.0384,0.147 0.16573,0.26727 0.282849,0.26727 0.15532,0 0.21297,-0.12986 0.21297,-0.47971 z m 0.43564,-1.735 c 1.041971,-0.35504 1.12435,-0.70998 0.3489,-1.50314 -0.521679,-0.53358 -0.83433,-0.57319 -0.6476,-0.082 0.17961,0.47242 0.19095,0.45903 -0.38862,0.45903 -0.41561,0 -0.53364,-0.0562 -0.5927,-0.28201 -0.0726,-0.27767 -0.079,-0.27673 -0.41649,0.0607 -0.18851,0.18851 -0.34275,0.39513 -0.34275,0.45916 0,0.21957 1.000131,1.02606 1.34595,1.08535 0.042,0.007 0.35402,-0.0815 0.69331,-0.19709 z m 12.27675,0.0214 c 0.66953,-0.28049 1.14678,-0.83368 0.96638,-1.12016 -0.200279,-0.31805 -0.57126,-0.36122 -0.76988,-0.0896 -0.197098,0.26955 -0.74813,0.15799 -0.74813,-0.15147 0,-0.40432 -0.394539,-0.33616 -0.883299,0.1526 -0.59384,0.59383 -0.5248,0.81391 0.362719,1.15627 0.323071,0.12463 0.595092,0.22986 0.60449,0.23386 0.009,0.004 0.219871,-0.0777 0.46772,-0.18152 z m -5.662049,-0.74726 c 1.60448,-0.2084 2.56802,-0.77953 4.10491,-2.43316 0.11695,-0.12583 0.4027,-0.57684 0.63501,-1.00226 0.41569,-0.76124 0.422489,-0.80307 0.42984,-2.64436 0.007,-1.77668 -0.01109,-1.90927 -0.361069,-2.63303 -0.707011,-1.46206 -2.316441,-2.87363 -3.755481,-3.2938 -1.758741,-0.51351 -4.406941,-0.20474 -5.273361,0.61484 -0.0971,0.0919 -0.222859,0.16705 -0.27941,0.16705 -0.169759,0 -1.191529,1.05422 -1.59853,1.64929 -1.272519,1.86058 -1.29642,4.84361 -0.0546,6.81467 0.788009,1.25074 2.4076,2.41298 3.77957,2.71226 0.917029,0.20004 1.167009,0.20515 2.373129,0.0485 z m 7.023348,-2.14586 c -0.01439,-0.65278 -0.0843,-1.14167 -0.167039,-1.16926 -0.0782,-0.0261 -0.142269,-0.13262 -0.142269,-0.23674 0,-0.21337 -0.02619,-0.22215 -0.32316,-0.1082 -0.11626,0.0446 -0.21138,0.16129 -0.21138,0.25928 0,0.098 -0.180409,0.52588 -0.4009,0.95087 -0.220501,0.42499 -0.40091,0.7894 -0.40091,0.8098 0,0.0204 0.17829,0.0371 0.39619,0.0371 0.247039,0 0.511159,0.12247 0.70159,0.32533 0.167961,0.17893 0.36552,0.3092 0.439021,0.2895 0.0782,-0.021 0.123359,-0.50126 0.108857,-1.15767 z m -15.508098,0.88908 c 0.10356,-0.10356 0.43767,-0.23887 0.74247,-0.30068 l 0.554179,-0.11238 -0.4827,-0.96885 c -0.49432,-0.99218 -0.74025,-1.162 -1.0644,-0.73499 -0.204399,0.26926 -0.2591,2.3052 -0.0619,2.3052 0.0682,0 0.20882,-0.0847 0.31238,-0.1883 z m 16.90263,-0.97527 c 0.23886,-0.51431 0.214659,-0.57367 -0.23386,-0.57367 -0.43166,0 -0.512839,0.20931 -0.26257,0.67696 0.186039,0.3476 0.297839,0.32434 0.49643,-0.10329 z m -18.16545,-0.21648 c 0.0338,-0.28557 -0.0131,-0.35719 -0.233861,-0.35719 -0.20021,0 -0.27615,0.0857 -0.27615,0.31181 0,0.60676 0.43893,0.64581 0.510011,0.0454 z m -0.009,-1.29246 c 0.57854,-0.6435 0.25728,-1.52361 -0.55616,-1.52361 -1.00211,0 -1.11454,0.76196 -0.2997,2.03106 0.12709,0.19794 0.32968,0.0778 0.85586,-0.50745 z m 18.689183,0.33198 c 0.121089,-0.1848 0.249139,-0.59308 0.284549,-0.90729 0.0794,-0.70476 -0.14069,-0.92912 -0.85366,-0.87006 -0.89331,0.074 -0.99142,0.77037 -0.247941,1.7599 0.331941,0.4418 0.536141,0.44616 0.817052,0.0175 z m -17.452893,-2.60395 c 0,-0.58406 -0.11376,-0.64317 -0.70721,-0.36749 -0.41123,0.19103 -0.40657,0.37613 0.0143,0.56623 0.16061,0.0726 0.29203,0.17779 0.29203,0.23386 0,0.0561 0.0902,0.10195 0.20045,0.10195 0.14477,0 0.20045,-0.14849 0.20045,-0.53455 z m 15.920273,0.24683 c 0.306049,-0.35288 0.306617,-0.37448 0.01569,-0.59534 -0.462758,-0.35128 -0.701579,-0.23264 -0.701579,0.34851 0,0.62079 0.275571,0.71995 0.6859,0.24683 z m -18.484535,-0.21185 c -0.0477,-0.24764 -0.40158,-0.37218 -0.7154,-0.25176 -0.32923,0.12634 -0.0604,0.48409 0.36374,0.48409 0.3046,0 0.38604,-0.0538 0.35166,-0.23233 z m 21.206262,-0.0349 c 0,-0.21508 -0.489001,-0.33898 -0.82658,-0.20944 -0.169309,0.065 -0.17554,0.11541 -0.0351,0.28459 0.213129,0.25681 0.861708,0.20024 0.861708,-0.0752 z m -0.14841,-1.01194 c 0.0443,-0.11558 0.01741,-0.32832 -0.0599,-0.47277 -0.156411,-0.29226 -0.0552,-0.74306 0.231029,-1.02932 0.161419,-0.16142 0.22425,-0.14595 0.446079,0.10983 0.295831,0.34108 0.66712,0.27444 0.66712,-0.11974 0,-0.14329 0.0348,-0.35129 0.0774,-0.46223 0.0481,-0.12542 -0.110181,-0.37862 -0.418632,-0.66956 l -0.49603,-0.46786 0.0624,-1.07862 c 0.0343,-0.59324 0.0127,-1.07862 -0.0481,-1.07862 -0.162859,0 -0.78072,0.56189 -0.78072,0.71 0,0.07 -0.1128,0.2251 -0.250661,0.34467 -0.333589,0.28932 -1.19544,1.95619 -1.30022,2.51468 -0.148638,0.79233 0.353541,1.62925 0.982932,1.63815 0.16537,0.002 0.300678,0.0644 0.300678,0.13789 0,0.21731 0.4988,0.15226 0.586581,-0.0765 z m -20.853782,-0.0489 c 0.5903,-0.22443 0.89016,-0.67139 0.89016,-1.32684 0,-0.56214 -0.23194,-1.47134 -0.4136,-1.62131 -0.0445,-0.0368 -0.15473,-0.20688 -0.24493,-0.37807 -0.28152,-0.53429 -1.47263,-1.89372 -1.65924,-1.89372 -0.0482,0 -0.0877,0.51388 -0.0877,1.14196 0,1.03455 -0.0309,1.17286 -0.32829,1.47027 -0.38106,0.38106 -0.42102,0.52776 -0.28035,1.02931 0.11693,0.4169 0.23511,0.45467 0.52273,0.16705 0.25988,-0.25988 0.29187,-0.25509 0.61524,0.092 0.33242,0.3568 0.34421,0.60948 0.0439,0.94129 -0.19716,0.21786 -0.20175,0.26949 -0.0334,0.37597 0.25086,0.15867 0.5618,0.15933 0.97542,0.002 z m 2.83741,-1.80271 c 0.10499,-0.105 0.1909,-0.28541 0.1909,-0.40091 0,-0.1155 0.0455,-0.20999 0.1011,-0.20999 0.180771,0 0.43344,-1.04676 0.43344,-1.79568 0,-0.86736 -0.18312,-1.32585 -0.76394,-1.91269 -0.49935,-0.50452 -0.90673,-0.55198 -1.25831,-0.14659 -0.30178,0.34795 -0.30803,0.4365 -0.0491,0.69545 0.26007,0.26008 0.25764,0.62045 -0.004,0.62045 -0.47883,0 -0.3339,0.82634 0.23714,1.35202 0.12913,0.11887 0.23477,0.27295 0.23477,0.34239 0,0.0695 0.12027,0.3752 0.26727,0.67945 0.147,0.30426 0.26727,0.6463 0.26727,0.7601 0,0.25748 0.0976,0.26203 0.34363,0.016 z m 14.757091,-0.54782 c 0,-0.26541 0.567071,-1.29531 0.902042,-1.63827 0.390908,-0.40023 0.380518,-0.66596 -0.0334,-0.85455 -0.37905,-0.17271 -0.427289,-0.43612 -0.133641,-0.72977 0.260791,-0.26079 0.253211,-0.34691 -0.0626,-0.71101 -0.19182,-0.22118 -0.350383,-0.28134 -0.585751,-0.22227 -0.39352,0.0988 -1.155739,0.78867 -1.155739,1.04607 0,0.10281 -0.0677,0.25462 -0.150421,0.33735 -0.21585,0.21585 -0.0834,1.59865 0.214669,2.24164 0.364461,0.78612 0.60474,1.03431 0.824662,0.8518 0.0991,-0.0822 0.18016,-0.22669 0.18016,-0.32099 z m -19.911581,-1.09126 c 0,-0.1065 0.0901,-0.28374 0.20025,-0.39388 0.27486,-0.27486 0.41756,-0.8888 0.22176,-0.95407 -0.0851,-0.0284 -0.15474,-0.1969 -0.15474,-0.37453 0,-0.17762 -0.0601,-0.32295 -0.13363,-0.32295 -0.0735,0 -0.13364,-0.0807 -0.13364,-0.17927 0,-0.18881 -1.99918,-2.36204 -2.17157,-2.36062 -0.0551,5.3e-4 -0.10022,0.15117 -0.10022,0.33492 0,0.18375 0.0493,0.33409 0.10947,0.33409 0.0602,0 0.19239,0.30448 0.29374,0.67664 0.10134,0.37215 0.23248,0.70645 0.29142,0.74287 0.0589,0.0364 0.10718,0.15884 0.10718,0.27202 0,0.11318 0.0973,0.42534 0.2163,0.6937 0.43125,0.97274 0.57085,1.30058 0.71273,1.67375 0.12014,0.31599 0.17788,0.3523 0.34271,0.21549 0.10903,-0.0905 0.19824,-0.25166 0.19824,-0.35816 z m 25.076571,0.0927 c 0.0441,-0.22049 0.132799,-0.4009 0.197112,-0.4009 0.0643,0 0.11693,-0.11672 0.11693,-0.25939 0,-0.14265 0.0601,-0.29654 0.133627,-0.34197 0.0735,-0.0454 0.133641,-0.19931 0.133641,-0.34197 0,-0.14266 0.047,-0.25938 0.104461,-0.25938 0.0575,0 0.187571,-0.28565 0.289139,-0.63477 0.101581,-0.34912 0.219954,-0.66483 0.263044,-0.70158 0.10404,-0.0887 0.55989,-1.3149 0.64584,-1.73725 0.0611,-0.3001 0.004,-0.27291 -0.56371,0.26727 -1.158863,1.10318 -1.674213,1.66877 -1.674213,1.83742 0,0.0919 -0.0505,0.1671 -0.112191,0.1671 -0.18237,0 -0.42235,0.64542 -0.42235,1.13589 0,0.49047 0.23998,1.1359 0.42235,1.1359 0.0617,0 0.112191,0.12027 0.112191,0.26727 0,0.41465 0.26443,0.31487 0.354129,-0.13364 z m -17.641751,-1.54375 c 0.21414,-0.23106 0.31584,-0.50029 0.3155,-0.83521 -10e-4,-1.15233 -1.06903,-1.94074 -2.53428,-1.87108 -0.871189,0.0414 -1.21879,0.27735 -0.646399,0.43875 1.227889,0.34624 2.112099,1.24126 2.112099,2.13793 0,0.57863 0.29059,0.62865 0.75308,0.12961 z m 10.33861,-0.12675 c 0,-0.17507 0.0601,-0.35548 0.133631,-0.4009 0.0735,-0.0454 0.133641,-0.17125 0.133641,-0.27961 0,-0.41653 1.141881,-1.3148 1.804059,-1.41918 0.147,-0.0232 0.267271,-0.1315 0.267271,-0.24074 0,-0.28278 -1.458039,-0.34067 -2.07501,-0.0824 -1.314272,0.55018 -1.697972,1.57841 -0.901422,2.41556 0.47088,0.49489 0.63783,0.49679 0.63783,0.007 z m 5.341782,-1.27717 c 0.85974,-0.71548 0.962951,-0.91163 0.538139,-1.02271 -0.147918,-0.0387 -0.267259,-0.18228 -0.267259,-0.32158 0,-0.13843 -0.0601,-0.25168 -0.133641,-0.25168 -0.0735,0 -0.13363,-0.078 -0.13363,-0.17334 0,-0.0953 -0.24352,-0.41104 -0.54115,-0.70158 l -0.541139,-0.52825 -1.296339,0.0126 c -1.076741,0.0105 -1.384022,0.0626 -1.814031,0.3077 -0.52483,0.29915 -0.88546,0.60023 -0.88546,0.73922 0,0.13411 0.916339,0.0817 1.00226,-0.0573 0.0454,-0.0735 0.41252,-0.13364 0.815769,-0.13364 0.600249,0 0.792641,0.0595 1.061191,0.32802 0.1804,0.1804 0.328009,0.44818 0.328009,0.59506 0,0.33522 0.272981,0.94781 0.42236,0.94781 0.0617,0 0.11218,0.27273 0.11218,0.60606 0,0.56188 0.01921,0.59577 0.26366,0.46495 0.14501,-0.0776 0.6261,-0.44273 1.069081,-0.81138 z m -20.442512,0.47355 c 0,-0.35916 0.19035,-0.75661 0.56794,-1.18588 0.27412,-0.31163 0.30135,-0.57161 0.068,-0.64938 -0.12406,-0.0414 -0.11495,-0.10618 0.0362,-0.2573 0.57855,-0.57855 1.50759,-0.66865 2.63723,-0.25576 0.38483,0.14067 0.69969,0.22493 0.69969,0.18726 0,-0.16591 -0.889159,-0.87687 -1.32503,-1.05948 -0.67525,-0.2829 -1.97705,-0.37801 -2.65567,-0.19403 -0.59941,0.16252 -1.36162,0.82945 -1.36894,1.19782 -0.005,0.27244 -0.31258,0.68177 -0.51161,0.68177 -0.31038,0 -0.13147,0.28953 0.66116,1.06994 0.88616,0.87251 1.19105,0.99156 1.19105,0.46504 z m 7.022861,-0.41599 c 0.259849,-0.17026 0.298719,-0.25712 0.179389,-0.4009 -0.0838,-0.10096 -0.207619,-0.18356 -0.2752,-0.18356 -0.0676,0 -0.25195,-0.12027 -0.40974,-0.26726 -0.42439,-0.39539 -0.54541,-0.33104 -0.43984,0.23385 0.157211,0.84131 0.38109,0.98762 0.945391,0.61787 z m 5.80439,-0.0499 c 0.0516,-0.11025 0.16326,-0.33494 0.24818,-0.49932 0.35308,-0.68341 0.008,-0.77551 -0.627581,-0.16769 -0.46585,0.44519 -0.496409,0.53787 -0.25646,0.77782 0.205831,0.20583 0.51274,0.15235 0.635861,-0.11081 z m -3.859491,-0.80251 c 0.189931,-0.68261 0.11829,-1.92651 -0.14427,-2.50495 -0.14179,-0.31237 -0.316579,-0.56795 -0.38842,-0.56795 -0.0718,0 -0.21009,-0.0783 -0.30722,-0.17405 -0.46023,-0.45361 -1.27305,-0.623189 -2.57665,-0.53756 l -1.27489,0.0837 v -0.421059 c 0,-0.35202 0.0511,-0.42106 0.311811,-0.42106 0.1715,0 0.355199,-0.0434 0.408229,-0.0964 0.1116,-0.1116 -0.84001,-0.97267 -1.07494,-0.97267 -0.0866,0 -0.17741,-0.0486 -0.20191,-0.108 -0.0438,-0.1061 -1.24397,-0.96107 -1.34915,-0.96107 -0.0296,0 -0.0265,0.32796 0.007,0.72881 0.0792,0.95526 -0.005,1.24599 -0.56851,1.95446 -0.56687,0.713129 -0.58614,0.896369 -0.104699,0.995249 1.59034,0.32663 3.64154,1.24918 3.64154,1.63783 0,0.1 0.0861,0.26785 0.19132,0.37308 0.165999,0.166 0.202549,0.15147 0.27623,-0.10977 0.235159,-0.83385 0.37065,-1.03608 0.69411,-1.03608 0.44543,0 0.70923,0.29794 0.70923,0.80105 0,0.63147 0.252269,1.03941 0.935439,1.51266 0.43122,0.29871 0.700031,0.24065 0.816041,-0.17626 z m 1.993961,0.17517 c 0.635319,-0.43539 0.93144,-0.88679 0.931609,-1.42014 1.81e-4,-0.57179 0.24033,-0.89249 0.66833,-0.89249 0.40439,0 0.668181,0.31278 0.668181,0.79227 0,0.22575 0.0585,0.41045 0.13012,0.41045 0.0716,0 0.400729,-0.27061 0.73147,-0.60136 0.33075,-0.33075 0.688129,-0.60136 0.79419,-0.60136 0.10606,0 0.21288,-0.0452 0.237379,-0.10048 0.0729,-0.1644 1.782932,-0.70132 2.233653,-0.70132 0.508108,0 0.540578,-0.23513 0.116088,-0.84063 -0.16537,-0.235899 -0.333258,-0.458969 -0.373099,-0.495719 -0.226359,-0.20885 -0.420302,-1.23834 -0.33741,-1.79112 0.101139,-0.67444 0.006,-0.75149 -0.428011,-0.34704 -0.157779,0.147 -0.340609,0.26727 -0.406279,0.26727 -0.0657,0 -0.308181,0.18041 -0.538911,0.40091 -0.23073,0.22049 -0.46042,0.4009 -0.51043,0.4009 -0.168791,0 -0.579681,0.44094 -0.579681,0.62207 0,0.0989 0.120271,0.17974 0.267271,0.17974 0.2086,0 0.26727,0.0891 0.26727,0.40589 v 0.405889 l -1.436581,-0.0384 c -1.372259,-0.0367 -1.461849,-0.022 -2.00114,0.32864 -0.811249,0.52741 -0.946219,0.80944 -1.05043,2.19482 -0.12457,1.6561 -0.0333,1.86648 0.616411,1.42121 z m 11.754181,-1.86939 c -0.0011,-0.13353 -0.0887,-0.48333 -0.194591,-0.77732 -0.223009,-0.61902 -0.266919,-1.883239 -0.0696,-2.005159 0.267769,-0.16549 0.533498,0.31131 0.534979,0.959939 7.94e-4,0.35437 0.0388,0.87042 0.0845,1.14678 0.0749,0.45321 0.10055,0.47941 0.261549,0.26727 0.0982,-0.12936 0.180406,-0.36695 0.182746,-0.52799 0.002,-0.16103 0.0644,-0.32996 0.13789,-0.37538 0.0735,-0.0454 0.13363,-0.40082 0.13363,-0.78975 0,-1.943159 -0.962645,-3.128179 -3.057756,-3.764069 -1.43719,-0.4362 -2.558039,-0.002 -3.06393,1.18583 -0.533199,1.25236 0.343,2.4974 1.648711,2.34275 0.380069,-0.045 0.453991,-0.13107 0.7552,-0.87906 0.30289,-0.75218 1.178719,-0.49474 1.178719,0.34648 0,0.43659 -0.768929,1.357369 -1.13353,1.357369 -0.32978,0 -0.23173,0.3761 0.164682,0.63168 0.561469,0.36201 1.23612,1.07237 1.23612,1.30157 0,0.1127 0.0601,0.2049 0.133638,0.2049 0.0735,0 0.134152,0.13531 0.134789,0.30068 0.0011,0.27553 0.0402,0.25951 0.467723,-0.19153 0.256609,-0.27071 0.465659,-0.60146 0.46455,-0.73499 z m -24.559531,-0.17083 c 0.94748,-0.94748 1.17087,-1.34149 0.76059,-1.34149 -0.1626,0 -0.66082,-0.51141 -0.89498,-0.91867 -0.14854,-0.258329 -0.13772,-0.364559 0.074,-0.72716 0.1364,-0.23355 0.34989,-0.44426 0.47441,-0.46824 0.30608,-0.0589 0.62775,0.286751 0.62775,0.674631 0,0.437599 0.24104,0.63763 0.76835,0.63763 0.94682,0 1.637081,-0.66551 1.637081,-1.578381 0,-0.83482 -0.445261,-1.517979 -1.301131,-1.99635 -0.795989,-0.4449 -2.79526,0.0983 -3.82739,1.039921 -0.68023,0.62058 -1.25294,2.04147 -1.11069,2.755619 0.2492,1.25103 0.48568,1.93759 0.63549,1.845 0.0472,-0.0292 0.0655,-0.50594 0.0406,-1.05944 -0.027,-0.60145 0.008,-1.006369 0.0862,-1.006369 0.0723,0 0.13147,-0.120271 0.13147,-0.26727 0,-0.178181 0.0891,-0.267271 0.26727,-0.267271 0.2416,0 0.26727,0.0891 0.26727,0.92756 0,0.51015 -0.0522,0.95984 -0.11608,0.9993 -0.0639,0.0395 -0.15618,0.3225 -0.20519,0.62899 -0.0744,0.46515 -0.0403,0.60922 0.20619,0.87159 0.16242,0.17288 0.32218,0.31434 0.35503,0.31434 0.0328,0 0.53849,-0.47878 1.12366,-1.06394 z m 27.234234,-1.89368 c 0,-0.128619 0.0601,-0.271009 0.13364,-0.316439 0.0735,-0.0454 0.13363,-0.22938 0.13363,-0.40879 0,-0.17941 0.0468,-0.3262 0.10402,-0.3262 0.0572,0 0.21206,-0.34578 0.34411,-0.7684 0.13206,-0.422621 0.27403,-0.853641 0.31549,-0.957841 0.0721,-0.181249 -0.87178,0.31173 -1.03205,0.53901 -0.0374,0.053 -0.27794,0.116341 -0.53454,0.14069 -0.33568,0.0319 -0.45218,0.10052 -0.41532,0.244741 0.10613,0.41523 0.28769,1.28626 0.3621,1.73725 0.13717,0.831379 0.18295,0.901449 0.39802,0.609219 0.105,-0.14267 0.1909,-0.36463 0.1909,-0.49324 z M 70.880436,99.941421 c 0.0769,-0.238871 0.15677,-0.76506 0.1774,-1.16931 0.037,-0.72503 0.0322,-0.735601 -0.35774,-0.779951 -0.21738,-0.0247 -0.49505,-0.16003 -0.61703,-0.300679 -0.36537,-0.421271 -0.54823,-0.321001 -0.44754,0.245419 0.049,0.275621 0.14192,0.55826 0.2065,0.62808 0.0646,0.0698 0.11743,0.265261 0.11743,0.434311 0,0.16905 0.0601,0.307359 0.13363,0.307359 0.0735,0 0.13364,0.12109 0.13364,0.269081 0,0.28692 0.27109,0.799999 0.42268,0.799999 0.0501,0 0.15408,-0.19544 0.23103,-0.434309 z m 14.630061,-0.40091 c 0.143839,-0.536711 0.0889,-1.57451 -0.10305,-1.945631 -0.188981,-0.36545 -1.26963,-1.22819 -1.53841,-1.22819 -0.0799,0 -0.145201,-0.149199 -0.145201,-0.331539 0,-0.24867 0.0901,-0.354161 0.36047,-0.422011 0.227551,-0.0571 0.379471,-0.0334 0.412041,0.0643 0.0284,0.0851 0.17936,0.15474 0.33553,0.15474 0.24414,0 0.20041,-0.0858 -0.311811,-0.612079 -0.689739,-0.70861 -1.16943,-0.991541 -1.681099,-0.991541 -0.65186,0 -0.82956,0.30175 -0.75137,1.27586 l 0.0692,0.862301 h -0.429439 c -0.410511,0 -0.42764,-0.0209 -0.38857,-0.474321 0.0457,-0.530549 -0.187791,-0.77192 -0.62175,-0.64272 -0.497391,0.148081 -0.73499,0.470861 -0.73499,0.998491 0,0.406579 0.102559,0.61601 0.512909,1.047379 0.297691,0.312931 0.690221,0.57464 0.93545,0.623691 0.232391,0.0465 0.422531,0.13712 0.422531,0.201429 0,0.0643 0.180409,0.11693 0.4009,0.11693 0.220499,0 0.40091,0.0601 0.40091,0.13364 0,0.0735 0.1804,0.133631 0.4009,0.133631 0.220499,0 0.40091,0.0601 0.40091,0.13364 0,0.0735 0.12027,0.13363 0.267269,0.13363 0.14699,0 0.267271,0.0601 0.267271,0.133639 0,0.0735 0.105229,0.13543 0.23386,0.13763 0.12862,0.002 0.384199,0.180801 0.56794,0.396901 0.40254,0.47342 0.609819,0.502369 0.717579,0.10023 z m 1.67217,0.0659 c 0.11887,-0.129119 0.381499,-0.31969 0.583629,-0.42348 0.20212,-0.103789 0.367491,-0.238689 0.367491,-0.29977 0,-0.0611 0.12027,-0.111049 0.26727,-0.111049 0.147,0 0.26727,-0.0601 0.26727,-0.13364 0,-0.0735 0.18041,-0.133631 0.4009,-0.133631 0.2205,0 0.40091,-0.0601 0.40091,-0.13364 0,-0.0735 0.14856,-0.133629 0.33013,-0.133629 0.49628,0 1.74986,-0.618891 2.06496,-1.01947 0.462629,-0.58815 0.316108,-1.66525 -0.27692,-2.0356 -0.33809,-0.211141 -0.64819,0.006 -0.64819,0.454629 0,0.70197 -0.342751,0.94043 -0.75671,0.52647 -0.153831,-0.15383 -0.18161,-0.359249 -0.11453,-0.84699 0.0811,-0.589369 0.0598,-0.66272 -0.25039,-0.866 -0.65933,-0.43201 -1.256241,-0.220609 -2.21924,0.78594 -0.65532,0.68496 -0.68218,0.663161 0.46772,0.379561 0.49548,-0.122201 0.44367,0.38528 -0.0868,0.84977 -0.683231,0.598299 -0.933921,0.88451 -1.06197,1.212439 -0.136251,0.34895 -0.16665,2.162871 -0.0362,2.162871 0.0465,0 0.18181,-0.10565 0.300679,-0.234781 z M 72.164426,96.74614 c 0.2205,-0.341619 0.50614,-0.65133 0.63477,-0.68824 0.35397,-0.10157 0.28016,-0.343709 -0.13364,-0.438429 -0.20212,-0.0463 -0.60804,-0.162061 -0.90203,-0.257301 -0.48119,-0.155879 -0.55788,-0.14829 -0.7684,0.076 -0.12862,0.137041 -0.23386,0.34188 -0.23386,0.4552 0,0.11332 -0.0601,0.20604 -0.13364,0.20604 -0.0735,0 -0.13363,0.0923 -0.13363,0.20516 0,0.3006 0.40213,0.863921 0.61672,0.863921 0.1018,0 0.18509,0.0645 0.18509,0.143429 0,0.333401 0.49735,0.009 0.86862,-0.56578 z m 28.837744,0.53487 c 0.15902,-0.0851 0.36554,-0.23115 0.45893,-0.32454 0.1912,-0.19119 0.23415,-1.124329 0.0517,-1.124329 -0.0649,0 -0.14943,-0.119971 -0.18777,-0.2666 -0.10568,-0.404091 -0.41421,-0.451401 -1.26173,-0.193441 -1.018765,0.310081 -1.103355,0.40248 -0.699484,0.76405 0.182679,0.16354 0.499938,0.52285 0.705034,0.79847 0.40534,0.544771 0.4982,0.57923 0.93325,0.34639 z m 2.15124,-0.724809 c 0.0446,-0.11626 0.0811,-0.353251 0.0811,-0.526651 0,-0.1734 0.0535,-0.348329 0.11887,-0.388739 0.0654,-0.0404 0.15224,-0.269461 0.19303,-0.509011 0.0408,-0.239559 0.13235,-0.70617 0.20346,-1.036909 0.0711,-0.33075 0.19734,-0.932101 0.2805,-1.336351 0.0832,-0.40425 0.20873,-1.0056 0.27904,-1.33635 0.39354,-1.85132 0.65867,-4.27631 0.46753,-4.27631 -0.0544,0 -0.26738,0.18041 -0.47336,0.4009 -0.20597,0.2205 -0.47064,0.40091 -0.58815,0.40091 -0.11751,0 -0.21365,0.0601 -0.21365,0.13363 0,0.0735 -0.30068,0.13364 -0.66818,0.13364 -0.6752,0 -0.76446,0.0816 -0.55013,0.50294 0.44636,0.87744 0.68377,1.71582 0.68377,2.414661 0,0.650299 -0.45566,2.10073 -0.75354,2.398609 -0.3286,0.3286 -0.36971,0.81886 -0.0897,1.06909 0.14134,0.12629 0.3353,0.590431 0.43102,1.031431 0.23659,1.089979 0.2525,1.135889 0.39368,1.135889 0.0679,0 0.16004,-0.0951 0.20465,-0.211379 z m -33.728494,-0.26568 c 0,-0.256221 0.54879,-1.4351 0.72305,-1.55321 0.12498,-0.0847 -0.34989,-1.132191 -0.59415,-1.3106 -0.20777,-0.15176 -0.66302,-1.73076 -0.65754,-2.280681 0.006,-0.63803 0.21975,-1.51362 0.55152,-2.2629 0.24509,-0.55353 0.20542,-0.66817 -0.23122,-0.66817 -0.17941,0 -0.3262,-0.0601 -0.3262,-0.13364 0,-0.0735 -0.12027,-0.13363 -0.26727,-0.13363 -0.147,0 -0.26727,-0.0601 -0.26727,-0.13364 0,-0.0735 -0.12027,-0.13363 -0.26727,-0.13363 -0.147,0 -0.26727,-0.0601 -0.26727,-0.13364 0,-0.0735 -0.1267,-0.13363 -0.28157,-0.13363 -0.21402,0 -0.25955,0.0561 -0.1898,0.23386 0.0505,0.12862 0.14697,0.68488 0.21444,1.23612 0.0675,0.55125 0.1837,1.33301 0.25828,1.73725 0.0746,0.40425 0.17269,1.021891 0.21803,1.372551 0.0453,0.350649 0.1348,0.669909 0.1988,0.709459 0.064,0.0396 0.11636,0.29689 0.11636,0.57185 0,0.27496 0.054,0.55705 0.11995,0.62688 0.066,0.0698 0.15128,0.36749 0.18957,0.66149 0.0815,0.625551 0.28388,1.504971 0.42273,1.83671 0.10967,0.262001 0.33683,0.188621 0.33683,-0.108799 z m 25.202781,-0.3914 c 0.238511,-0.205121 0.55277,-0.333991 0.81471,-0.334091 0.234529,-9e-5 0.45879,-0.0525 0.498359,-0.11655 0.182681,-0.295589 -1.374961,-1.48723 -1.944019,-1.48723 -0.27591,0 -0.578321,-0.194229 -1.12146,-0.720289 -0.652611,-0.632101 -0.82967,-0.73104 -1.44591,-0.808041 -0.38623,-0.0483 -0.81969,-0.0494 -0.96324,-0.003 -0.695781,0.22701 -1.39691,0.67494 -1.39691,0.89244 0,0.0572 0.32339,0.10393 0.71863,0.10393 0.76772,0 0.96429,0.12639 1.03923,0.66818 0.0401,0.29025 0.12263,0.33957 0.62863,0.37588 0.65257,0.0468 1.169179,0.45184 1.24345,0.97482 0.02479,0.17435 0.15026,0.33706 0.278879,0.36157 0.181671,0.0346 0.23386,-0.0471 0.23386,-0.36613 0,-0.30484 0.0614,-0.4107 0.238101,-0.4107 0.166791,0 0.291269,0.18009 0.41565,0.60136 0.0977,0.33074 0.22171,0.60135 0.275659,0.60135 0.054,0 0.27283,-0.15026 0.486381,-0.33392 z m -16.249251,-0.18425 c 0,-0.765311 0.69516,-0.853381 0.843641,-0.106891 l 0.0579,0.290981 0.0994,-0.30068 c 0.0547,-0.165371 0.152491,-0.300681 0.21742,-0.300681 0.0649,0 0.118051,-0.113259 0.118051,-0.251679 0,-0.26396 0.280989,-0.405411 1.069069,-0.538161 0.398551,-0.0671 0.47445,-0.138019 0.513191,-0.479259 0.0592,-0.521521 0.201189,-0.597281 1.123839,-0.599741 0.812971,-0.002 0.962681,-0.12492 0.467721,-0.383489 -0.165371,-0.0864 -0.57129,-0.304831 -0.90203,-0.485411 -1.097,-0.59894 -1.873181,-0.36987 -3.276871,0.96708 -0.313379,0.29847 -0.58553,0.43431 -0.87014,0.43431 -0.473359,0 -0.8087,0.15614 -1.32677,0.617741 -0.19989,0.1781 -0.478279,0.40816 -0.61865,0.51123 -0.24354,0.178839 -0.23688,0.194529 0.14568,0.342979 0.220501,0.0856 0.59635,0.162101 0.83522,0.170101 0.238871,0.008 0.43431,0.0536 0.43431,0.10127 0,0.12011 0.55143,0.374819 0.835221,0.385789 0.170639,0.007 0.233859,-0.0949 0.233859,-0.375489 z m -3.81925,-0.800921 c 0.0396,-0.064 0.23937,-0.149869 0.44403,-0.190799 0.20466,-0.0409 0.51579,-0.199041 0.6914,-0.35135 0.17562,-0.15231 0.370241,-0.27692 0.43249,-0.27692 0.25865,0 0.0863,-0.36962 -0.254309,-0.54537 -0.202121,-0.104291 -0.446961,-0.26479 -0.544081,-0.35667 -0.0971,-0.0919 -0.29257,-0.167041 -0.43432,-0.167041 -0.14175,0 -0.25772,-0.0601 -0.25772,-0.13364 0,-0.36134 -0.24451,-0.0339 -0.66211,0.88662 -0.42078,0.92753 -0.47252,0.989551 -0.58422,0.70029 -0.40286,-1.04324 -0.67658,-1.45327 -0.97012,-1.45327 -0.16694,0 -0.38299,0.0752 -0.48012,0.167041 -0.0971,0.0919 -0.34196,0.252379 -0.54408,0.35667 -0.20212,0.10429 -0.3675,0.27765 -0.3675,0.385229 0,0.27202 0.52451,0.699351 0.96703,0.78785 0.20313,0.0406 0.36932,0.12649 0.36932,0.1908 0,0.15237 2.10015,0.15291 2.19431,5.3e-4 z m 23.916921,-0.184309 c 0.22016,-0.35111 -0.0587,-0.694361 -0.600462,-0.739081 -0.513127,-0.0423 -0.9999,-0.25281 -1.381479,-0.59727 -0.249158,-0.22493 -0.220189,-0.233859 0.758701,-0.233859 0.940339,0 1.03883,-0.0268 1.29473,-0.352111 0.152329,-0.19366 0.276969,-0.474559 0.276969,-0.62424 0,-0.31751 -0.36249,-0.7609 -0.62207,-0.7609 -0.27567,0 -0.22034,-0.10615 0.287991,-0.55246 0.257238,-0.225869 0.46772,-0.5277 0.46772,-0.67073 0,-0.37401 -0.350721,-0.99829 -0.697151,-1.24094 -0.40396,-0.28294 -1.7467,-0.28385 -1.98116,-0.001 -0.14545,0.17525 -0.126191,0.21919 0.12483,0.28483 0.21063,0.0551 0.270222,0.14042 0.20524,0.29392 -0.0504,0.11896 -0.120899,0.3516 -0.156768,0.51698 -0.0638,0.29402 -0.301321,0.42832 -0.301321,0.17034 0,-0.0847 -0.12006,-0.0847 -0.342791,0 -0.45923,0.1746 -0.459018,0.17468 -0.459018,-0.17703 0,-0.16905 -0.0719,-0.37929 -0.159861,-0.46722 -0.18614,-0.18613 0.0346,-0.39585 0.89485,-0.85 0.293989,-0.15521 0.56461,-0.31955 0.60136,-0.36519 0.10549,-0.13103 0.993,-0.41565 1.296059,-0.41565 0.402461,0 0.65481,-0.34396 0.44119,-0.60136 -0.41257,-0.49712 -2.075079,0.0484 -3.016908,0.98997 -1.174692,1.17434 -1.471351,2.99912 -0.726401,4.46807 0.39683,0.78251 1.237509,1.69142 1.56445,1.69142 0.0959,0 0.174328,0.0485 0.174328,0.10784 0,0.41154 1.808472,0.52234 2.056972,0.12602 z m 1.405279,0.0241 c 0.634754,-0.306679 1.604544,-1.21641 2.015844,-1.891009 0.14696,-0.24105 0.26744,-0.663791 0.26771,-0.93941 5.2e-4,-0.45988 -0.0303,-0.501131 -0.37368,-0.501131 -0.42975,0 -0.6949,0.214161 -0.6949,0.561271 0,0.132299 -0.0601,0.240539 -0.13363,0.240539 -0.0735,0 -0.13364,0.0928 -0.13364,0.206291 0,0.286619 -0.49515,0.791479 -1.276574,1.3016 -0.537509,0.350889 -0.668959,0.512629 -0.703008,0.86502 -0.0512,0.530449 0.184438,0.56627 1.031878,0.156829 z m -28.82129,-1.36044 c 0.37542,-0.576101 0.57094,-1.288421 0.40045,-1.458921 -0.42818,-0.42818 -1.902,-0.673359 -1.902,-0.31641 0,0.39208 0.4293,1.44656 0.71213,1.74921 0.36937,0.39524 0.54509,0.40106 0.78942,0.0261 z m 5.81433,-0.267271 c 0.543621,-0.81312 0.70249,-1.23901 0.7002,-1.877169 -0.002,-0.53731 -0.2477,-1.457271 -0.44094,-1.650521 -0.0504,-0.0504 -0.0916,-0.17439 -0.0916,-0.27559 0,-0.10121 -0.13902,-0.33394 -0.30893,-0.517179 -0.29405,-0.317121 -0.318809,-0.321661 -0.51381,-0.0944 -0.11269,0.13132 -0.31101,0.50938 -0.440729,0.84013 -0.129711,0.33074 -0.262671,0.6685 -0.295451,0.75057 -0.0579,0.14505 1.05845,0.585771 1.4838,0.585771 0.11481,0 0.208751,0.0601 0.208751,0.13364 0,0.0735 -0.0902,0.133629 -0.200451,0.133629 -0.11025,0 -0.20045,0.0601 -0.20045,0.13364 0,0.0735 -0.12027,0.13363 -0.267269,0.13363 -0.147001,0 -0.267271,0.0601 -0.267271,0.13364 0,0.0735 -0.14679,0.133631 -0.3262,0.133631 -0.17941,0 -0.35238,0.0451 -0.38436,0.10023 -0.0761,0.13111 0.72566,1.904289 0.86103,1.904289 0.0572,0 0.27483,-0.25557 0.48367,-0.56794 z m 8.163051,0.0899 c 0.0243,-0.21483 0.159149,-0.5143 0.29975,-0.66548 0.38843,-0.4177 0.0984,-0.59374 -0.978361,-0.59374 h -0.91514 l 0.413751,0.60136 c 0.227559,0.33074 0.463969,0.60135 0.525369,0.60135 0.0614,0 0.14474,0.12661 0.185201,0.28135 0.10317,0.39451 0.41643,0.24447 0.46943,-0.22484 z m 2.564199,0.3778 c 0.003,-0.1409 0.651221,-0.9516 1.162711,-1.45507 0.3426,-0.337249 0.39449,-0.453 0.25497,-0.56879 -0.0963,-0.08 -0.21586,-0.10469 -0.265601,-0.055 -0.1822,0.182201 -1.101119,0.43783 -1.580939,0.43978 -0.619041,0.003 -0.751621,0.20288 -0.38938,0.58847 0.164419,0.17501 0.281269,0.47626 0.281269,0.7251 0,0.3366 0.0559,0.4257 0.267271,0.4257 0.147,0 0.268369,-0.0451 0.269699,-0.10023 z m -13.38004,-1.757449 c 0.5095,-0.475941 0.53971,-0.969761 0.087,-1.422441 -0.72643,-0.72643 -1.80066,-0.16919 -1.68621,0.8747 0.0257,0.234051 0.7951,0.935441 1.02619,0.935441 0.0869,0 0.34472,-0.174471 0.57299,-0.3877 z m 12.33536,-0.5521 c 1.01634,-0.198041 1.714041,-0.416051 2.21156,-0.69103 1.020731,-0.564191 1.35944,-0.767791 1.591421,-0.956651 0.13533,-0.11017 0.44285,-0.36131 0.68338,-0.55808 0.63955,-0.52321 0.740019,-0.7748 0.44517,-1.114759 -0.13512,-0.155791 -0.34386,-0.28326 -0.463861,-0.28326 -0.119999,0 -0.218189,-0.0542 -0.218189,-0.120381 0,-0.19393 -2.557111,-1.38501 -2.68941,-1.25271 -0.0688,0.0688 -0.0292,0.38019 0.0944,0.74304 0.19582,0.5747 0.195131,0.67794 -0.009,1.29142 -0.3106,0.935121 -1.14467,1.74405 -1.79823,1.74405 -0.14454,0 -0.42622,0.0745 -0.62597,0.16547 -0.28869,0.13154 -0.37448,0.13154 -0.41833,0 -0.0303,-0.091 -0.23055,-0.16547 -0.44492,-0.16547 -0.21437,0 -0.38977,-0.0601 -0.38977,-0.133629 0,-0.0735 -0.0929,-0.133641 -0.20652,-0.133641 -0.28353,0 -0.76722,-0.51095 -0.98564,-1.04117 -0.12594,-0.30573 -0.15996,-0.77983 -0.1116,-1.55507 l 0.0696,-1.11525 -0.55221,0.28554 c -0.30372,0.15704 -0.58228,0.3156 -0.61903,0.35235 -0.0367,0.0367 -0.33743,0.21381 -0.66818,0.39345 -0.33074,0.17965 -0.67871,0.40305 -0.77326,0.49645 -0.0945,0.0934 -0.35012,0.27509 -0.56795,0.40376 -0.21782,0.12868 -0.39604,0.31638 -0.39604,0.41713 0,0.25359 1.43195,1.6062 2.00334,1.89236 0.49733,0.24907 2.9566,0.894651 4.03706,1.05976 0.0515,0.008 0.41232,-0.0478 0.80181,-0.123679 z m -6.47471,-0.218031 c 0.238881,-0.041 0.434321,-0.124679 0.434321,-0.18585 0,-0.0612 -0.24502,-0.31005 -0.54449,-0.553069 -0.299471,-0.243021 -0.848621,-0.731321 -1.22033,-1.085111 -0.667611,-0.63541 -0.672381,-0.64568 -0.39096,-0.84279 0.380679,-0.26664 0.359929,-0.45166 -0.0506,-0.45166 -0.184549,0 -0.602969,-0.12571 -0.92983,-0.27935 l -0.59429,-0.27935 -0.039,-0.93713 -0.039,-0.937119 -0.433101,0.414659 c -0.24915,0.23855 -0.57551,0.41467 -0.7684,0.41467 -0.40917,0 -0.46303,0.39252 -0.068,0.49582 0.147,0.0384 0.26727,0.12301 0.26727,0.18794 0,0.0649 0.0806,0.11805 0.1792,0.11805 0.3027,0 1.344571,1.1017 1.6429,1.73725 0.49783,1.06056 0.58333,1.33794 0.58333,1.89257 v 0.54365 l 0.7684,-0.0893 c 0.422621,-0.0491 0.963841,-0.12286 1.202711,-0.163899 z m 13.5038,0.062 c 0.0882,-0.0882 0.160361,-0.35976 0.160361,-0.60347 0,-0.51457 0.285541,-1.50797 0.43344,-1.50797 0.0556,0 0.1011,-0.0927 0.1011,-0.20603 0,-0.11333 0.120269,-0.33514 0.267269,-0.49292 0.408101,-0.43805 0.33256,-0.50913 -0.501129,-0.47156 -0.712591,0.0321 -0.77157,0.0122 -0.812069,-0.27341 -0.0651,-0.45947 0.195079,-0.70626 0.587398,-0.5571 0.447871,0.17028 0.694712,0.0414 0.79497,-0.4151 0.133501,-0.60784 -0.15303,-1.269879 -0.685631,-1.584119 -0.562628,-0.33196 -1.623488,-0.3685 -2.190208,-0.0754 -0.533801,0.27604 -1.2403,1.311609 -1.03492,1.516989 0.0843,0.0843 0.20368,0.15327 0.2653,0.15327 0.13929,0 2.507208,1.58509 2.507208,1.67834 0,0.11985 -0.922128,0.99436 -1.048509,0.99436 -0.0671,0 -0.35633,0.2255 -0.642768,0.50112 -0.286442,0.27563 -0.684571,0.58647 -0.884741,0.69076 -0.20017,0.104291 -0.36394,0.239601 -0.36394,0.30068 0,0.0611 -0.0867,0.111051 -0.19257,0.111051 -0.105911,0 -0.23459,0.068 -0.28594,0.151089 -0.068,0.10996 0.17541,0.12786 0.89415,0.0658 0.802659,-0.0693 1.522421,-0.0188 2.397369,0.1683 0.0404,0.009 0.145661,-0.0564 0.23386,-0.14464 z m 8.446074,-0.1071 c 0.19891,-0.10646 0.2355,-0.23627 0.17891,-0.634769 -0.15478,-1.090041 -0.86088,-2.034941 -2.10972,-2.823251 -0.817764,-0.51619 -1.276784,-0.55171 -1.276784,-0.0988 0,0.25149 0.147661,0.39064 0.70264,0.66217 0.868864,0.4251 1.531054,1.43047 1.558994,2.36697 0.0175,0.58612 0.41863,0.80989 0.94596,0.527671 z m -31.070444,-0.378 c 0.77074,-0.28084 0.80544,-0.45036 0.31237,-1.52572 -0.15998,-0.34891 -0.25478,-0.67048 -0.21065,-0.7146 0.0918,-0.0918 0.83163,0.29999 1.22241,0.64739 0.14469,0.12863 0.29683,0.2328 0.33809,0.2315 0.0995,-0.003 0.67639,-1.22973 0.67639,-1.4382 0,-0.0897 0.0601,-0.16305 0.13364,-0.16305 0.0735,0 0.13363,-0.12028 0.13363,-0.26727 0,-0.21652 -0.0891,-0.26727 -0.46918,-0.26727 -0.51232,0 -1.61747,0.458811 -1.93625,0.80385 -0.11025,0.11933 -0.30569,0.256 -0.43431,0.30372 -0.12863,0.0477 -0.23386,0.16557 -0.23386,0.2619 0,0.0963 -0.12028,0.26183 -0.26727,0.36778 -0.147,0.10595 -0.26727,0.29963 -0.26727,0.43041 0,0.13077 -0.0522,0.23776 -0.11604,0.23776 -0.12979,0 -0.30376,1.06404 -0.20112,1.23011 0.10725,0.17353 0.60754,0.12109 1.31942,-0.13831 z m 4.27837,-1.84571 c 0.40312,-0.267649 0.73293,-0.56423 0.73293,-0.65907 0,-0.47719 -1.83246,-1.245319 -2.06669,-0.86632 -0.0669,0.1083 0.46699,2.00724 0.56536,2.01076 0.0195,7.94e-4 0.36528,-0.21772 0.7684,-0.48537 z m 10.183,-1.23696 c 0.167901,-0.24974 0.305271,-0.50587 0.305271,-0.56917 0,-0.17653 -0.743371,-0.91446 -0.9212,-0.91446 -0.26153,0 -0.816051,0.41907 -0.816051,0.61673 0,0.10179 -0.0601,0.18508 -0.133629,0.18508 -0.0735,0 -0.13364,0.12027 -0.13364,0.26727 0,0.147 0.0601,0.26727 0.13364,0.26727 0.0735,0 0.133629,0.0921 0.133629,0.20476 0,0.23298 0.472671,0.46496 0.86404,0.424051 0.144471,-0.0151 0.40005,-0.231791 0.56794,-0.481531 z m -5.598729,-0.30879 c 0.343989,-0.23582 0.74201,-0.5365 0.884489,-0.66817 0.14248,-0.13167 0.30142,-0.2394 0.3532,-0.2394 0.331551,0 0.20065,-0.742979 -0.201809,-1.145439 -0.7198,-0.7198 -2.334891,-0.55914 -3.010241,0.29943 -0.21651,0.275239 -0.27625,0.511159 -0.24621,0.972219 l 0.0397,0.60878 0.53454,0.0125 c 0.863811,0.0202 0.89369,0.0321 0.80181,0.32162 -0.121219,0.38191 0.11884,0.33601 0.84455,-0.16151 z m -9.651941,-0.0293 c 0.14984,-0.10495 0.35326,-0.43569 0.45203,-0.73499 0.15054,-0.45612 0.15037,-0.63271 -0.001,-1.091419 -0.26282,-0.79636 -0.84148,-1.19 -1.74934,-1.19 -1.15877,0 -1.64442,0.55436 -1.56204,1.783029 l 0.0415,0.61938 0.53453,-0.52647 c 0.294,-0.28956 0.61775,-0.529429 0.71945,-0.533029 0.21575,-0.008 0.81695,0.651139 0.81719,0.895479 1e-4,0.10582 -0.19575,0.16704 -0.53438,0.16704 -0.42565,0 -0.53453,0.049 -0.53453,0.24054 0,0.1323 0.0722,0.31271 0.16036,0.40091 0.22176,0.22176 1.32508,0.20147 1.65622,-0.0305 z m 33.442744,0.0725 c 0.3027,-0.19182 0.12305,-0.61229 -0.28156,-0.65899 -0.51668,-0.0596 -0.52097,-0.64053 -0.006,-0.83626 0.42557,-0.161799 0.93024,0.13815 1.21733,0.72352 0.28149,0.57398 0.47477,0.43885 0.37836,-0.26453 -0.0467,-0.341 -0.085,-0.872569 -0.085,-1.181259 0,-0.47176 -0.0543,-0.58598 -0.34037,-0.71634 -0.43511,-0.19825 -1.81856,-0.20078 -2.25019,-0.004 -0.41932,0.19106 -0.66126,0.76893 -0.64943,1.5512 0.0107,0.70912 0.21395,1.15411 0.61601,1.34879 0.35168,0.17029 1.15775,0.19215 1.40101,0.038 z m -7.350184,-0.35922 c 0.51857,-0.2587 0.535339,-0.48763 0.0539,-0.73603 -0.202121,-0.1043 -0.446961,-0.2648 -0.544089,-0.35667 -0.283591,-0.268259 -0.466582,-0.200259 -0.359601,0.13364 0.053,0.16537 0.12672,0.49611 0.163841,0.73499 0.0774,0.49784 0.11348,0.50963 0.685908,0.22407 z m 4.029574,-0.75604 v -0.699019 l -0.434313,0.437149 -0.43431,0.43715 0.334081,0.2589 c 0.183748,0.14238 0.379192,0.26022 0.434322,0.26186 0.0551,0.002 0.10022,-0.31159 0.10022,-0.69604 z m -27.796034,0.1912 c 0,-0.2814 -0.24655,-0.56127 -0.49445,-0.56127 -0.10394,0 -0.17373,0.16105 -0.17373,0.4009 0,0.33855 0.052,0.40091 0.33409,0.40091 0.23262,0 0.33409,-0.073 0.33409,-0.24054 z m 2.13816,-0.42763 c 0,-0.0735 0.0871,-0.13364 0.19365,-0.13364 0.23499,0 0.87543,-0.810009 0.87543,-1.107209 0,-0.11735 0.0601,-0.25053 0.133631,-0.29596 0.165129,-0.10205 0.177029,-1.45512 0.0156,-1.77247 -0.0649,-0.12763 -0.196819,-0.40017 -0.29312,-0.60565 -0.22417,-0.47838 -1.30617,-1.62856 -1.42254,-1.51219 -0.0486,0.0486 -0.0168,0.28664 0.0708,0.52888 0.24285,0.67158 0.20576,1.02283 -0.108,1.02283 -0.19631,0 -0.26727,-0.0891 -0.26727,-0.33555 0,-0.57948 -0.51605,-1.49526 -0.94203,-1.6717 -0.43178,-0.17885 -1.06179,-0.10079 -1.64572,0.2039 -0.21052,0.10985 -0.4661,0.19973 -0.56795,0.19973 -0.10184,0 -0.18517,0.0601 -0.18517,0.13364 0,0.0735 -0.12027,0.13363 -0.26727,0.13363 -0.147,0 -0.26727,0.0531 -0.26727,0.11805 0,0.0649 -0.13531,0.16665 -0.30068,0.22606 -0.21527,0.0773 -0.0255,0.12137 0.66817,0.15507 0.53287,0.0259 0.96886,0.10457 0.96886,0.17485 0,0.0703 0.12027,0.12778 0.26727,0.12778 0.16712,0 0.26727,0.0891 0.26727,0.23777 0,0.13077 0.12027,0.32445 0.26726,0.4304 0.147,0.10595 0.26728,0.28814 0.26728,0.40487 0,0.11672 0.0752,0.31368 0.16704,0.43767 0.1507,0.2034 0.20412,0.20609 0.54604,0.0275 0.32664,-0.1706 0.40511,-0.17184 0.56795,-0.009 0.41826,0.41826 0.0525,1.24382 -0.48838,1.10237 -0.1825,-0.0477 -0.33233,0.0302 -0.47402,0.2464 -0.26186,0.39965 -0.14206,0.80548 0.38243,1.295419 0.30852,0.28821 0.52633,0.37019 0.98351,0.37019 0.32297,0 0.58722,-0.0601 0.58722,-0.13364 z m 24.424962,-0.13418 c 0.383817,-0.357589 0.622728,-1.245029 0.431397,-1.602519 -0.161427,-0.30164 -0.282818,-0.33276 -0.489968,-0.1256 -0.10055,0.10054 -0.206291,0.0782 -0.36081,-0.0764 -0.2271,-0.2271 -0.276751,-0.56063 -0.13748,-0.92356 0.0886,-0.23089 0.45343,-0.29344 0.45343,-0.0778 0,0.0735 0.172889,0.13364 0.384199,0.13364 0.315931,0 0.397801,-0.068 0.46074,-0.38275 0.0421,-0.21051 0.312714,-0.62853 0.601364,-0.92895 0.5024,-0.52291 0.56401,-0.54792 1.44354,-0.58611 l 0.91875,-0.0399 -1.19567,-0.59215 c -1.948473,-0.96499 -2.888413,-0.81241 -3.066374,0.49775 -0.047,0.34592 -0.142409,0.71914 -0.212058,0.82939 -0.111192,0.17601 -0.154062,0.17304 -0.351462,-0.0243 -0.21068,-0.21063 -0.21027,-0.25546 0.007,-0.71244 0.283469,-0.59737 0.199459,-0.71178 -0.28839,-0.39274 -1.04126,0.68097 -1.47147,1.78944 -1.29086,3.32606 0.0661,0.56283 0.18098,0.83123 0.50247,1.17441 0.737852,0.78763 1.65867,0.99945 2.190591,0.50389 z M 71.728266,84.528931 c -0.12926,-0.42116 -0.11469,-0.52208 0.1102,-0.76348 0.78302,-0.84047 -0.44291,-2.37048 -1.75802,-2.19409 -0.58946,0.0791 -1.04784,0.39562 -1.44072,0.99496 -0.36314,0.55398 -0.35999,0.57046 0.10914,0.57046 0.21616,0 0.43018,0.0601 0.4756,0.13363 0.0454,0.0735 0.22939,0.13364 0.4088,0.13364 0.17941,0 0.3262,0.0601 0.3262,0.13363 0,0.0735 0.12027,0.13363 0.26727,0.13363 0.14699,0 0.26727,0.0601 0.26727,0.13364 0,0.24973 0.42556,0.13503 0.49581,-0.13364 0.10856,-0.41511 0.30382,-0.315 0.32578,0.16705 0.0322,0.70704 0.0483,0.81991 0.16385,1.14935 0.0786,0.22421 0.15134,0.27297 0.25398,0.17033 0.10263,-0.10263 0.10115,-0.28271 -0.005,-0.62911 z m 28.984934,0.45828 c 0.30492,-0.35157 0.3121,-0.46148 0.037,-0.56704 -0.31514,-0.12093 -0.45566,0.0215 -0.45566,0.46175 0,0.46822 0.0853,0.48967 0.41864,0.10529 z m -16.479003,-0.25296 c 0.221649,-0.2065 0.27228,-0.36184 0.206889,-0.63476 -0.384209,-1.60363 -2.86698,-3.90268 -4.21454,-3.90268 -0.53474,0 -1.510109,0.4868 -1.705,0.85096 -0.232169,0.43382 -0.13567,1.20694 0.15759,1.26249 0.16177,0.0307 0.233861,-0.0411 0.233861,-0.23276 0,-0.21877 0.0844,-0.27707 0.400899,-0.27707 0.44808,0 0.53912,0.28179 0.20046,0.62044 -0.11025,0.11025 -0.20046,0.2563 -0.20046,0.32455 0,0.0683 0.0902,0.12409 0.20046,0.12409 0.11024,0 0.200451,0.0601 0.200451,0.13363 0,0.0735 0.120269,0.13364 0.267269,0.13364 0.147,0 0.26727,0.0601 0.26727,0.13363 0,0.0735 0.12027,0.13364 0.267271,0.13364 0.146999,0 0.267269,0.0601 0.267269,0.13363 0,0.0735 0.0845,0.13363 0.187731,0.13363 0.14072,0 0.17043,-0.12906 0.118619,-0.51534 -0.0562,-0.41922 -0.0118,-0.56876 0.23836,-0.8018 0.45676,-0.42553 0.791631,-0.37713 0.791631,0.11443 0,0.2205 -0.0601,0.40091 -0.13363,0.40091 -0.246031,0 -0.137131,0.53499 0.218209,1.07194 0.193511,0.29242 0.420781,0.53167 0.505041,0.53167 0.0842,0 0.239879,0.12027 0.34583,0.26727 0.248899,0.34534 0.80436,0.34244 1.17852,-0.006 z m 4.927629,-0.0214 c 0.73479,-0.42574 1.109771,-0.90177 1.109961,-1.40905 9e-5,-0.23888 -0.06,-0.43431 -0.133471,-0.43431 -0.19583,0 -0.163059,-0.4774 0.0446,-0.64973 0.130949,-0.10868 0.27555,-0.10416 0.54514,0.017 0.33971,0.15274 0.36263,0.21202 0.30911,0.79973 -0.0672,0.73801 0.0323,0.78099 0.797368,0.34454 0.826752,-0.47162 0.98561,-0.64574 0.839031,-0.91963 -0.17268,-0.32266 -0.0266,-0.66103 0.28539,-0.66103 0.163881,0 0.252971,0.0941 0.252971,0.26727 0,0.37659 0.448598,0.34346 0.65844,-0.0486 0.13943,-0.26054 0.13408,-0.38353 -0.0306,-0.7019 -0.286461,-0.55394 -0.611941,-0.79536 -1.296061,-0.96131 -1.355119,-0.32872 -2.478949,0.28921 -3.983679,2.19038 -0.62672,0.79183 -1.117251,2.12679 -0.87171,2.37232 0.187929,0.18793 0.986519,0.0765 1.47348,-0.2057 z m 5.931982,-1.35606 -0.0778,-1.58403 -0.433102,0.41473 c -0.238199,0.2281 -0.493778,0.41472 -0.567938,0.41472 -0.0742,0 -0.134851,0.0252 -0.134851,0.0559 0,0.0307 -0.0365,0.15101 -0.0811,0.26727 -0.0581,0.15154 -0.0011,0.21138 0.200451,0.21138 0.159578,0 0.281559,0.0857 0.281559,0.19791 0,0.19225 -0.24715,0.28896 -0.935439,0.36604 -0.564611,0.0632 -0.40639,0.42866 0.221908,0.51253 0.3058,0.0408 0.786882,0.22903 1.069081,0.41825 0.282191,0.18923 0.51803,0.33624 0.524081,0.32669 0.006,-0.01 -0.024,-0.73016 -0.0668,-1.60138 z m -17.517162,1.24995 c 0,-0.0735 0.120271,-0.13364 0.26727,-0.13364 0.147001,0 0.267271,-0.0601 0.267271,-0.13364 0,-0.0735 0.117439,-0.13363 0.26098,-0.13363 0.330269,0 0.941729,-0.27423 0.941729,-0.42235 0,-0.0617 -0.26417,-0.11219 -0.58705,-0.11219 -0.70587,0 -0.87966,-0.26556 -0.40637,-0.62099 0.41654,-0.31281 0.41204,-0.44809 -0.0149,-0.44809 -0.18709,0 -0.4905,-0.15034 -0.67425,-0.33408 -0.18375,-0.18375 -0.39149,-0.33409 -0.46165,-0.33409 -0.14312,0 -0.17959,2.57612 -0.0385,2.71724 0.13664,0.13664 0.44545,0.10576 0.44545,-0.0445 z m 8.12399,-1.61952 c -0.0337,-1.27933 -0.008,-1.50622 0.188121,-1.63215 0.184569,-0.11881 0.29113,-0.0719 0.56779,0.24976 0.38584,0.44866 0.389929,0.48231 0.20066,1.64882 -0.076,0.46854 -0.10642,0.8837 -0.0675,0.92257 0.0389,0.0389 0.222619,-0.28433 0.40832,-0.71825 0.18571,-0.43392 0.39696,-0.89336 0.46945,-1.02099 0.0725,-0.12762 0.13182,-0.32306 0.13182,-0.43431 0,-0.11124 0.0601,-0.20226 0.133639,-0.20226 0.0735,0 0.13363,-0.0949 0.13363,-0.21094 0,-0.11601 0.237751,-0.44631 0.52833,-0.734 0.658241,-0.6517 0.75428,-0.62476 -2.499439,-0.70108 -2.508471,-0.0588 -2.788851,-0.002 -2.171571,0.4433 0.147001,0.10595 0.26727,0.28636 0.26727,0.40091 0,0.11454 0.12027,0.29495 0.267271,0.4009 0.146999,0.10595 0.267269,0.29963 0.267269,0.43041 0,0.13077 0.0601,0.23777 0.13363,0.23777 0.0735,0 0.13364,0.14031 0.13364,0.31181 0,0.1715 0.0412,0.35303 0.0916,0.4034 0.148321,0.14832 0.438761,1.06358 0.440941,1.38953 0.001,0.18099 0.0841,0.30068 0.20814,0.30068 0.175729,0 0.20036,-0.21911 0.167039,-1.48588 z m 15.395734,1.08498 c 0,-0.0735 -0.0601,-0.13364 -0.13363,-0.13364 -0.0735,0 -0.13364,-0.12027 -0.13364,-0.26727 0,-0.17818 0.0891,-0.26727 0.26727,-0.26727 0.14998,0 0.26727,0.0891 0.26727,0.203 0,0.15419 0.0884,0.18135 0.3675,0.11296 0.20212,-0.0495 0.38754,-0.14087 0.41204,-0.203 0.0245,-0.0621 0.21994,-0.11296 0.43431,-0.11296 0.21437,0 0.38977,-0.0601 0.38977,-0.13363 0,-0.0735 0.18041,-0.13364 0.4009,-0.13364 0.2205,0 0.40091,-0.0614 0.40091,-0.1365 0,-0.27426 -0.68755,-1.16577 -1.01365,-1.31435 -0.85026,-0.38741 -1.95064,-0.0231 -2.46158,0.81487 -0.346224,0.56784 -0.340044,0.61956 0.14408,1.20689 0.40257,0.48838 0.65845,0.63005 0.65845,0.36454 z m -4.949544,-3.47451 c 0.85326,-0.83449 1.9324,-1.33634 2.87356,-1.33634 1.545624,0 1.273434,-0.54544 -0.59671,-1.19576 -0.619688,-0.21549 -1.2506,0.048 -2.064858,0.86222 -0.394891,0.39489 -0.71651,0.6008 -0.938411,0.6008 -0.185679,0 -0.337601,-0.0601 -0.337601,-0.13363 0,-0.0735 0.0601,-0.13363 0.133631,-0.13363 0.0735,0 0.133641,-0.0928 0.133641,-0.20629 0,-0.11345 0.150339,-0.36842 0.334089,-0.56658 0.18374,-0.19817 0.334079,-0.40602 0.334079,-0.46189 0,-0.0559 -0.150339,-0.10159 -0.334079,-0.10159 -0.18375,0 -0.334089,0.0601 -0.334089,0.13363 0,0.0735 -0.146791,0.13364 -0.326202,0.13364 -0.179409,0 -0.363368,0.0601 -0.408789,0.13363 -0.0454,0.0735 -0.1699,0.13364 -0.27662,0.13364 -0.258061,0 -1.393819,0.53784 -1.393819,0.66004 0,0.0528 0.309999,0.24127 0.688879,0.41873 1.02434,0.47978 1.449279,0.92846 1.449279,1.53026 0,0.57062 -0.0021,0.57135 1.06402,-0.47088 z m -19.10471,0.46591 c 0,-0.53995 0.431671,-0.98796 1.45277,-1.50776 0.7196,-0.36631 0.85959,-0.55521 0.52866,-0.71332 -0.75593,-0.36116 -2.38823,-0.91752 -2.69191,-0.91752 -0.336029,0 -0.27591,0.16546 0.242751,0.66817 0.257249,0.24934 0.467729,0.56181 0.467729,0.69439 0,0.26269 -0.31645,0.32117 -0.573589,0.10599 -0.0888,-0.0743 -0.371881,-0.314 -0.62913,-0.53271 -0.659821,-0.56096 -1.562931,-0.96598 -1.914861,-0.85875 -0.55846,0.17015 -1.41066,0.59175 -1.50514,0.74464 -0.13422,0.21716 0.32285,0.51462 0.79075,0.51462 0.55915,0 1.41068,0.2682 1.99183,0.62737 0.27416,0.16944 0.53247,0.30807 0.57402,0.30807 0.12747,0 0.73157,0.64789 0.73157,0.7846 0,0.12027 0.20542,0.24983 0.43432,0.27393 0.0551,0.006 0.10023,-0.0805 0.10023,-0.19172 z"
       id="path4083-7"
       inkscape:connector-curvature="0" />
    <ellipse
       style="fill:#000080;fill-opacity:0;stroke:#000080;stroke-width:0.70554948;stroke-miterlimit:4;stroke-dasharray:none;stroke-opacity:1"
       id="path4241"
       cx="85.927147"
       cy="111.79295"
       rx="5.1235642"
       ry="5.3908339" />
    <path
       style="fill:#000080;fill-opacity:0;stroke:#000080;stroke-width:0.29439262;stroke-miterlimit:4;stroke-dasharray:none;stroke-opacity:1"
       d="m 84.911381,137.22002 c -0.39755,-0.62743 -0.79271,-1.22078 -0.87815,-1.31855 -0.0855,-0.0978 -0.15533,-0.27995 -0.15533,-0.4048 0,-0.12485 -0.0497,-0.22752 -0.1104,-0.22816 -0.0607,-5.8e-4 -0.17979,-0.14966 -0.26462,-0.33119 -0.27,-0.5778 -1.16055,-2.24076 -1.2409,-2.31719 -0.0685,-0.0652 -0.41932,-0.7236 -1.64693,-3.09112 -0.1889,-0.36432 -0.37669,-0.6955 -0.41731,-0.73598 -0.0752,-0.0749 -1.25496,-2.30489 -1.53742,-2.90599 -0.0853,-0.18152 -0.20476,-0.33055 -0.26548,-0.33119 -0.0607,-5.9e-4 -0.1104,-0.1281 -0.1104,-0.28327 0,-0.15518 -0.0497,-0.30421 -0.11039,-0.33119 -0.0607,-0.027 -0.4416,-0.70186 -0.84638,-1.4997 -0.40479,-0.79785 -0.81879,-1.48389 -0.91998,-1.52452 -0.10123,-0.0406 -0.18399,-0.19926 -0.18399,-0.35252 0,-0.15325 -0.0662,-0.27864 -0.1472,-0.27864 -0.081,0 -0.14721,-0.13248 -0.14721,-0.29439 0,-0.16191 -0.0662,-0.2944 -0.14719,-0.2944 -0.081,0 -0.1472,-0.13247 -0.1472,-0.29439 0,-0.16191 -0.0662,-0.29438 -0.14719,-0.29438 -0.081,0 -0.14719,-0.13249 -0.14719,-0.29441 0,-0.1619 -0.0662,-0.29438 -0.1472,-0.29438 -0.081,0 -0.1472,-0.13249 -0.1472,-0.29439 0,-0.16192 -0.0662,-0.2944 -0.1472,-0.2944 -0.0809,0 -0.14719,-0.13247 -0.14719,-0.29439 0,-0.16192 -0.0497,-0.29543 -0.1104,-0.29668 -0.0607,-10e-4 -0.27247,-0.33245 -0.47055,-0.73598 -0.19809,-0.40354 -0.41337,-0.7337 -0.47839,-0.7337 -0.065,0 -0.11823,-0.13247 -0.11823,-0.29439 0,-0.16192 -0.0662,-0.29439 -0.1472,-0.29439 -0.081,0 -0.14719,-0.13248 -0.14719,-0.2944 0,-0.16192 -0.0579,-0.29439 -0.1288,-0.29439 -0.0708,0 -0.16695,-0.19073 -0.21357,-0.42384 -0.0466,-0.23312 -0.18738,-0.52646 -0.31279,-0.65188 -0.12541,-0.1254 -0.22802,-0.36132 -0.22802,-0.52424 0,-0.16292 -0.0662,-0.33715 -0.14719,-0.38719 -0.081,-0.05 -0.14721,-0.21954 -0.14721,-0.37668 0,-0.15713 -0.0662,-0.2857 -0.1472,-0.2857 -0.081,0 -0.14719,-0.10023 -0.14719,-0.22279 0,-0.12253 -0.0662,-0.35437 -0.14719,-0.51519 -0.081,-0.16082 -0.21344,-0.42397 -0.2944,-0.58479 -0.081,-0.16081 -0.14719,-0.36609 -0.14719,-0.45614 0,-0.0901 -0.0925,-0.37247 -0.20572,-0.62758 -0.40499,-0.9132 -1.25214,-2.98439 -1.63465,-3.99656 -0.21416,-0.5667 -0.45073,-1.14538 -0.52568,-1.28597 -0.0749,-0.14057 -0.13629,-0.32592 -0.13629,-0.41189 0,-0.0859 -0.13248,-0.4305 -0.29439,-0.76563 -0.16192,-0.33513 -0.2944,-0.69713 -0.2944,-0.80446 0,-0.10728 -0.0639,-0.31017 -0.14206,-0.45075 -0.0781,-0.14057 -0.3454,-0.88485 -0.59393,-1.65396 -0.24852,-0.7691 -0.51579,-1.513378 -0.59391,-1.653958 -0.0781,-0.14058 -0.14206,-0.38506 -0.14206,-0.5433 0,-0.15823 -0.0662,-0.32864 -0.1472,-0.37867 -0.081,-0.05 -0.1472,-0.22044 -0.1472,-0.37867 0,-0.15824 -0.0586,-0.40273 -0.13024,-0.5433 -0.20582,-0.40396 -0.75294,-2.182807 -0.75294,-2.448065 0,-0.132145 -0.0598,-0.355285 -0.13285,-0.495868 -0.12076,-0.232355 -0.25545,-0.67742 -0.62303,-2.058747 -0.07,-0.26312 -0.19353,-0.698372 -0.27449,-0.967232 -0.081,-0.26886 -0.1472,-0.653037 -0.1472,-0.853738 0,-0.200689 -0.0595,-0.427827 -0.13211,-0.504731 -0.1361,-0.144041 -0.26318,-0.861845 -0.40264,-2.274188 -0.0439,-0.445263 -0.14035,-0.872506 -0.21418,-0.949411 -0.18476,-0.192462 -0.1728,-3.866862 0.0129,-3.981659 0.081,-0.05001 0.1472,-0.314991 0.1472,-0.588786 0,-0.273796 0.0662,-0.538757 0.14719,-0.588786 0.081,-0.05001 0.14719,-0.318902 0.14719,-0.597477 0,-0.278576 0.0662,-0.506495 0.1472,-0.506495 0.081,0 0.14721,-0.132475 0.14721,-0.294393 0,-0.161918 0.0662,-0.294393 0.14719,-0.294393 0.081,0 0.1472,-0.132476 0.1472,-0.294393 0,-0.161918 0.0662,-0.294394 0.14719,-0.294394 0.081,0 0.14719,-0.132475 0.14719,-0.294393 0,-0.161918 0.0662,-0.294393 0.1472,-0.294393 0.081,0 0.1472,-0.09021 0.1472,-0.200492 0,-0.191283 0.79683,-1.140287 1.91911,-2.285597 0.47829,-0.488111 0.69756,-0.645634 1.54,-1.106406 0.16192,-0.08856 0.32752,-0.194125 0.368,-0.234605 0.1758,-0.175818 0.75045,-0.441595 0.95477,-0.441595 0.12254,0 0.2228,-0.05177 0.2228,-0.115061 0,-0.06334 0.31463,-0.200712 0.69918,-0.305408 0.38455,-0.104751 0.85133,-0.251633 1.03729,-0.326523 0.43774,-0.176303 2.16051,-0.175653 2.74256,0.0011 0.24863,0.07545 0.75011,0.215494 1.11443,0.311169 0.36431,0.09572 0.79486,0.230331 0.95677,0.299251 0.95363,0.405907 5.46896,1.813403 6.3792,1.988506 1.40551,0.270369 4.97182,0.270346 6.37715,-4.4e-5 1.15854,-0.222918 5.10988,-1.493511 5.34144,-1.717608 0.0769,-0.07446 0.28828,-0.135317 0.46972,-0.135317 0.18141,0 0.3708,-0.0662 0.42082,-0.147202 0.05,-0.08096 0.28578,-0.147191 0.52387,-0.147191 0.23811,0 0.43291,-0.0662 0.43291,-0.147202 0,-0.08096 0.22792,-0.147191 0.50649,-0.147191 0.27858,0 0.54147,-0.05662 0.58421,-0.125723 0.20455,-0.330985 3.011459,-0.117892 3.801589,0.28861 0.14058,0.07237 0.38896,0.131506 0.55198,0.131506 0.16302,0 0.29639,0.0662 0.29639,0.147191 0,0.08096 0.12696,0.147202 0.28213,0.147202 0.15517,0 0.3042,0.04968 0.3312,0.110391 0.027,0.06069 0.34713,0.272694 0.71144,0.471049 0.36431,0.198354 0.79079,0.479871 0.94773,0.625586 0.15694,0.145715 0.3413,0.264929 0.4097,0.264929 0.16532,0 1.14491,0.984648 1.14491,1.150839 0,0.0716 0.19871,0.3382 0.44157,0.592345 0.24289,0.254145 0.4416,0.514304 0.4416,0.578122 0,0.06378 0.13248,0.21153 0.29439,0.328232 0.16192,0.116702 0.29439,0.330037 0.29439,0.474088 0,0.144042 0.0543,0.261889 0.12059,0.261889 0.0663,0 0.21078,0.331194 0.32101,0.735989 0.11022,0.404784 0.24743,0.735976 0.30489,0.735976 0.0575,0 0.13847,0.215274 0.17999,0.478386 0.0415,0.263122 0.188,0.975175 0.3255,1.582367 0.32375,1.429592 0.21489,3.250517 -0.36956,6.182244 -0.0888,0.445263 -0.19793,1.074529 -0.24259,1.398365 -0.0446,0.323824 -0.14065,0.651714 -0.21331,0.728621 -0.0727,0.07688 -0.13212,0.35842 -0.13212,0.625586 0,0.267152 -0.0587,0.485742 -0.13048,0.485742 -0.0718,0 -0.16712,0.182154 -0.21189,0.404797 -0.20055,0.997557 -0.27627,1.307027 -0.38709,1.582356 -0.0652,0.161915 -0.33198,0.9899 -0.59289,1.83996 -0.26093,0.850053 -0.53382,1.660573 -0.6064,1.801153 -0.0726,0.14057 -0.13199,0.38506 -0.13199,0.5433 0,0.15823 -0.0662,0.32863 -0.14721,0.37867 -0.081,0.05 -0.14719,0.24875 -0.14719,0.44159 0,0.19284 -0.0662,0.391548 -0.1472,0.441588 -0.081,0.05 -0.14719,0.23941 -0.14719,0.42083 0,0.18143 -0.0543,0.39279 -0.12069,0.46971 -0.0664,0.0769 -0.27703,0.63662 -0.4681,1.2438 -0.19107,0.6072 -0.40172,1.1669 -0.46809,1.24382 -0.0664,0.0769 -0.12069,0.29218 -0.12069,0.47838 0,0.18621 -0.0518,0.33856 -0.11506,0.33856 -0.0632,0 -0.20512,0.30499 -0.31518,0.67776 -0.11004,0.37276 -0.32324,0.93259 -0.47373,1.24406 -0.15048,0.31145 -0.27361,0.63663 -0.27361,0.72259 0,0.0859 -0.0608,0.27133 -0.13516,0.4119 -0.25868,0.48916 -0.74801,1.65159 -0.74801,1.77695 0,0.0694 -0.0921,0.31851 -0.20474,0.55359 -0.11261,0.23507 -0.30362,0.65924 -0.42448,0.94258 -0.12084,0.28336 -0.35989,0.82911 -0.53123,1.21277 -0.17135,0.38368 -0.31152,0.79766 -0.31152,0.91998 0,0.12232 -0.0605,0.2224 -0.13426,0.2224 -0.0738,0 -0.17902,0.26495 -0.23373,0.58878 -0.0547,0.32384 -0.1599,0.58879 -0.23374,0.58879 -0.0738,0 -0.134259,0.13248 -0.134259,0.29439 0,0.16192 -0.0662,0.2944 -0.14719,0.2944 -0.081,0 -0.1472,0.13247 -0.1472,0.29439 0,0.16192 -0.0662,0.29439 -0.14719,0.29439 -0.081,0 -0.14721,0.13248 -0.14721,0.2944 0,0.1619 -0.0662,0.29439 -0.14718,0.29439 -0.0809,0 -0.14721,0.18409 -0.14721,0.40909 0,0.24023 -0.12151,0.49668 -0.29438,0.62128 -0.16193,0.1167 -0.2944,0.33004 -0.2944,0.47408 0,0.14405 -0.0662,0.2619 -0.1472,0.2619 -0.081,0 -0.14719,0.13247 -0.14719,0.29439 0,0.16192 -0.0662,0.29439 -0.1472,0.29439 -0.081,0 -0.14719,0.13248 -0.14719,0.2944 0,0.16191 -0.0662,0.29439 -0.1472,0.29439 -0.081,0 -0.1472,0.13247 -0.1472,0.29439 0,0.16192 -0.0558,0.2944 -0.12405,0.2944 -0.0682,0 -0.28351,0.31462 -0.47839,0.69917 -0.19488,0.38456 -0.40401,0.72127 -0.46474,0.74825 -0.0607,0.027 -0.11039,0.17603 -0.11039,0.33119 0,0.15518 -0.0539,0.28214 -0.11972,0.28214 -0.0659,0 -0.21069,0.23183 -0.32187,0.51518 -0.11117,0.28336 -0.25602,0.51519 -0.32186,0.51519 -0.0659,0 -0.11971,0.13247 -0.11971,0.29439 0,0.16192 -0.0662,0.29439 -0.14722,0.29439 -0.081,0 -0.14719,0.13248 -0.14719,0.2944 0,0.16192 -0.0497,0.29451 -0.1104,0.29467 -0.0607,1.4e-4 -0.47469,0.71221 -0.91997,1.58235 -0.44526,0.87015 -0.85926,1.60417 -0.91998,1.63115 -0.0607,0.027 -0.1104,0.17603 -0.1104,0.3312 0,0.15516 -0.0662,0.28212 -0.14719,0.28212 -0.081,0 -0.14719,0.12696 -0.14719,0.28213 0,0.15517 -0.0556,0.3042 -0.12372,0.33119 -0.0681,0.027 -0.41566,0.61209 -0.77251,1.30023 -0.35684,0.68815 -0.68204,1.2843 -0.72266,1.32477 -0.0797,0.0795 -0.50809,0.85583 -1.05571,1.91355 -0.18862,0.36431 -0.3926,0.68447 -0.45334,0.71145 -0.0607,0.027 -0.11038,0.17603 -0.11038,0.3312 0,0.15516 -0.0497,0.28264 -0.1104,0.28326 -0.0607,5.9e-4 -0.18333,0.14967 -0.27244,0.3312 -0.43495,0.88591 -0.87947,1.65977 -0.97873,1.70388 -0.0607,0.027 -0.1104,0.1429 -0.1104,0.25759 0,0.11469 -0.0556,0.20852 -0.12356,0.20852 -0.068,0 -0.20017,0.16809 -0.29376,0.37353 -0.40033,0.87863 -0.98174,1.39283 -1.57487,1.39283 -0.48859,0 -0.56421,-0.0694 -1.24304,-1.14077 z"
       id="path4083-7-0"
       inkscape:connector-curvature="0"
       sodipodi:nodetypes="ccscccccccscccsssssssssssccssssscsscssscsscccscscccscscscccsccccscssssssssscccssccccccccscsssccsssccssscscsscscccccssccccscscscccssccscscccsscsssssssscssssssssccsscsssscccssscccccscccsscscc" />
  </g>
</svg>
